<svg xmlns="http://www.w3.org/2000/svg" viewBox="0 0 2000 2000"><defs><style>.cls-1{fill:#eaeaea;}</style></defs><g id="Ebene_2" data-name="Ebene 2"><g id="Layer_1" data-name="Layer 1"><path class="cls-1" d="M1021.13,442.07C980.48,567.18,939.9,692.33,903.74,818.85c-7.23,25.29-11.59,51.32-20.26,76.26-3.34,9.6.71,17.67,8,18.92,7.43,1.28,13.5-3.87,14.78-13.27,4.35-32,13.79-62.82,22.29-93.8C951.81,722,981.34,639,1006.43,554.64c20.27-68.18,46-134.68,62.94-203.88,22.84-93.3,52.27-184.38,91.16-272.27C1169.6,58,1182.47,30.66,1197.9,0H1175c-1.48,2.88-3.2,6.25-5.45,10.71-41.77,83-74.24,169.58-99.92,258.77C1053.12,326.9,1039.63,385.16,1021.13,442.07Zm54.61,22.35c-48.82,151.46-102.83,301.27-141.3,456-20.68,83.22-41.59,166.38-60.22,250.09-2.09,9.4,1.23,16.44,8.39,18s12.88-3.37,14.67-13.33c1.21-6.7,1.14-13.63,2.47-20.29,21.74-108.72,51-215.6,79.7-322.6,25.46-95.13,59.6-187.6,89.49-281.38,18-56.63,39.29-112.33,52-170.5C1146,266,1184.46,156.14,1234.58,50.3c7.63-16.12,15.85-32.7,24.21-50.3h-23.16c-3.82,8.12-7.66,16.26-11.38,24-43.55,90-80.55,182.5-105.68,279.45C1104.63,357.17,1092.81,411.45,1075.74,464.42ZM1260.41,101.1c6.88,3.33,14.8-.48,18.27-9.87,7.19-19.42,23.44-50.1,41.61-91.23H1297.2c-15.93,36.15-30.74,65.41-39.44,80.49C1252.6,89.43,1254.09,98,1260.41,101.1ZM907.27,609.3c-28.09,97.7-60.18,194.25-80.43,294.09C821.62,929.17,816.53,955,808.17,980c-2.38,7.14-.89,13.81,7.41,16.5,7,2.27,13.27-2.08,15.54-10.87,1.21-4.68,1.2-9.67,2.26-14.41,10.36-46.62,20.09-93.39,31.4-139.77,26.72-109.6,63.93-216.16,95-324.51,14.21-49.62,33.52-97.77,47.88-147.34,68-234.71,90.52-284.57,127.64-359.62h-23.42c-12,24.21-23.62,48.59-33.83,74.75-32.52,83.31-58.56,168.7-83.14,254.65C968,423.39,934.31,515.27,907.27,609.3ZM470,1553c1.17-5.18-.42-9.8-5.16-12.56s-9.39-2-13.54,1.4a20.42,20.42,0,0,0-6.24,9.67,103.49,103.49,0,0,1-15.14,29.22c-2.72,3.65-4.84,7.73-4.4,12.43-.37,5.28,1.89,8.76,6.47,11s8.2.59,11.77-1.91a16.5,16.5,0,0,0,6-8.64,113.8,113.8,0,0,1,16.42-31.82A24,24,0,0,0,470,1553Zm-29.09-59.82c8.52-21,17-42.13,25.17-63.32,5.38-13.92,10.39-28,15.25-42.1,2.47-7.18,1.49-13.74-6.5-17-6.88-2.8-12.85,1.09-16,9.94a31.36,31.36,0,0,0-1.19,3.71c-7.52,34.19-20.45,66.27-37.33,96.86-1.69,3.06-3.26,6.61-3.44,10-.36,7,2.88,11.79,9.85,12.65C434.6,1503.87,438.45,1499.19,440.88,1493.19ZM685,1626.76c2.13-9.39-1.77-16.6-8.92-17.66-7.9-1.18-13,3.43-14.27,13.44-1.1,8.38-1.39,16.89-2.91,25.18-11.51,62.66-27.27,124.34-43.1,186-12.5,48.69-29.82,114.7-46.06,166.28H591.5c25.09-81.58,43.77-158.64,62.87-233.35C666.2,1720.36,674.47,1673.32,685,1626.76ZM545,1500.49c-7.18,0-13.71,6.57-13.73,13.75,0,7.54,5.94,13.32,13.71,13.29s13.58-5.6,13.59-13.33A13.74,13.74,0,0,0,545,1500.49Zm44-155.21a13.67,13.67,0,0,0,13.37-13.94c0-7.88-5.65-13.35-13.64-13.29s-13.42,5.66-13.36,13.6A13.5,13.5,0,0,0,589.06,1345.28ZM493,1954.63c-6.51-2.59-13.38,1.08-16.36,9.52-6.37,18-6.09,19.43-12.43,35.85h23.4c3.64-8.83,7.35-17.85,11.25-27.34C502.26,1964.31,499.68,1957.31,493,1954.63Zm37.27-866.75c7.74-.06,13.21-5.76,13.17-13.74s-5.66-13.64-13.36-13.57a13.66,13.66,0,0,0,.19,27.31Zm-2.51,523.47a13.46,13.46,0,0,0-14,14.06,13.66,13.66,0,0,0,27.31-.24A13.43,13.43,0,0,0,527.72,1611.35ZM803,550.31c-18.18,78.12-44,154.28-62.17,232.46C731.94,821,726,860,715.29,897.83c-2.68,9.46,1.08,16.8,8,18.23,7.46,1.55,13.94-3.65,14.89-12.94,3.11-30.17,11-59.4,17.11-89,13.48-64.94,32.21-128.52,50.47-192.2,15.75-55,26.82-111.21,44.9-165.48C875.79,381,905.11,307,928.54,230.87,994.87,15.39,992,22,996.09,0H974.8l-3.43,14.23c-24.37,101.2-58.7,199.39-91.61,297.92C853.33,391.28,822,468.7,803,550.31ZM773.17,434.23c-16.23,51.17-26.4,103.89-40.31,155.64-27,100.41-53.74,200.86-71.73,303.4-1.63,9.25-4.65,18.25-6.49,27.48-1.72,8.63,2.49,16,9.39,16.59,8.44.79,12.33-4.38,13.89-11.93a46.07,46.07,0,0,0,.78-4.82c4-39.87,13.66-78.72,21.87-117.8,16.77-79.84,40.12-158,59.86-237.15,14-56.09,25.77-112.81,47.18-166.78,44.71-112.74,82.82-227.72,116.62-344.14,2.84-9.79,8-29.19,14.46-54.72H917.38c-.45,1.82-.9,3.62-1.37,5.47-24.69,98.1-58.26,193.42-90.94,289C809,341.5,788.21,386.79,773.17,434.23Zm352.91,1205.41c-7.52-1.37-13.71,4.35-14.67,14.49-2.55,27-9.52,53.07-15,79.46-5.06,24.37-39.73,171.15-63.23,266.41h21.2c17.18-67.88,31.65-132.12,52.38-217,10.1-41.34,16.59-83.47,27.73-124.58C1137.29,1648.2,1133.55,1641,1126.08,1639.64Zm-50.55-26.07c-6.9-2.28-13.19,2.41-15.07,11.35-1.74,8.25-2.25,16.75-4,25-12,55.57-23.1,111.32-36.82,166.5-7.72,31.08-20.7,83.52-44.81,183.59h21.29c1.87-10,5.18-25.84,17.07-71.06,26-99,46.52-199.22,70.14-298.75C1085,1622.86,1083.6,1616.25,1075.53,1613.57ZM1289,1484.25c4.21-48.58,7.69-97.23,17.34-145.16a39.16,39.16,0,0,0,.52-10.65c-.42-5.53-3.85-9-9.19-9.89s-9.53,1.93-11.88,6.68c-1.88,3.8-2.35,8-2.5,12.34a170,170,0,0,1-1.29,17.48c-7.93,57.38-13.81,114.94-16.35,172.83-2.33,53-1.19,106.07-3.69,159.08-4,84.58-19.92,166.36-54.73,244-24.38,54.35-24.3,53.69-32.2,69.08h22.88q3.3-6.57,6.77-13.34c51.57-100.78,76.6-207.92,79.08-321C1285.08,1605.22,1283.76,1544.64,1289,1484.25Zm-254.88,115.63c3.55-9.56.16-17.69-6.87-19.57-7.69-2-14,3.67-15.74,14.26-.89,5.46-1.45,11-2.63,16.38-22,101.28-44.6,202.43-70.31,302.86-.49,1.91-9.31,38.83-21.18,86.19h21.31c23.21-91.17,64.12-260.42,82.29-348.19C1024.6,1634.33,1027.84,1616.75,1034.11,1599.88Zm193.17,5.9c-.84-90.7,8-180.57,22.24-270,1.73-10.88,4.64-21.56,6.26-32.45,1-6.49-2.13-11.67-9-12.92-7.35-1.33-11.56,2.93-13.79,9.45a31.25,31.25,0,0,0-.87,5.77c-3.44,25.44-7,50.87-10.31,76.33-7.71,59-14.28,118.18-14.75,177.83-.32,42.3.49,84.63-2,126.89-2.56,42.86-5.89,85.68-16.53,127.47-19,74.4-48.79,129.67-76.62,185.86h23.42c6.11-12.34,12.59-25.33,19.75-40,29.41-60.1,53.38-122,62.92-188.76C1225.78,1716.38,1227.79,1661.13,1227.28,1605.78ZM846,614.07c-33,104.5-57.51,211.18-83.25,317.56-2,8.32,1.39,16.22,8.1,17.28,8.28,1.31,12.84-3.42,14.51-11,1.26-5.7,1.7-11.57,2.87-17.29a2862.4,2862.4,0,0,1,72.5-282.1c18.66-59.85,31.63-121.39,52.09-180.7C992.05,228.09,1026.74,109.31,1054.4,0h-21.2c-9.64,39.08-17.41,69.54-20.47,79.25-37.2,118-70.8,237.2-113.4,353.49C877.61,492,865,554,846,614.07Zm290.86,1178c-.43,7.21,5.83,14.05,13.08,14.29s13.84-6.19,14-13.45a13.55,13.55,0,0,0-27.07-.84ZM636.34,1279.28a13.66,13.66,0,1,0,.26-27.31,13.66,13.66,0,0,0-.26,27.31Zm170.17,275.49c1.07-10.58-2.78-17.14-10.48-17.76-8-.64-13,5-12.92,15.71.39,40.27-7,79.57-14.76,118.77-15.29,77.12-35.13,153.17-55.22,229.14-8.88,33.61-18,66.64-27.5,99.37h22.25c.93-3.32,1.87-6.61,2.79-10,21.36-78.65,42-157.48,61.05-236.73C787.47,1687.81,799.76,1621.79,806.51,1554.77Zm-168.7-21.93c-7.86-.21-13.79,5.23-14,12.88a13.61,13.61,0,0,0,13.08,14.09c7.61.32,13.47-5.29,13.72-13.14C650.85,1538.5,645.81,1533.06,637.81,1532.84ZM710.88,435.07C683.94,535.13,663.4,636.8,635.81,736.72c-2.08,7.52,0,13.78,7.7,16.7,6.38,2.43,13-2.51,15.08-11.41,2-8.52,2.58-17.36,4.63-25.85,13.36-55.27,27.22-110.41,40.39-165.71,13.92-58.47,26.18-117.36,49.17-173.26C813.37,229.86,848.24,120.47,880.44,0H859.56c-36.74,133.19-67.7,218.45-96.45,295.48C745.74,342,723.84,386.94,710.88,435.07Zm27.94,1204.57c6-35.06,5.81-70.62,10.64-105.73,1.25-9.13-4-16-11.33-16.32-7.55-.32-12.36,5.38-12.44,15.34-.07,9.42.86,18.88.36,28.27-2.5,47.51-9.89,94.32-20.35,140.71-27.16,120.42-52.45,216.9-77.25,298.09h21.67c21.54-72.1,38.91-141.39,54.94-205.22C718,1743.43,729.87,1691.88,738.82,1639.64ZM633.31,1381.29c7.93.22,13.76-5.17,14-13a13.5,13.5,0,1,0-27-.92C620.08,1375.4,625.37,1381.07,633.31,1381.29Zm765,556.31c.24-6.83-5.87-13.35-12.65-13.51-7-.16-12.78,5.57-13,13-.2,7.68,4.94,13.3,12.28,13.4A13.64,13.64,0,0,0,1398.27,1937.6ZM531.13,415c-19.19,78.3-31.94,157.91-47.41,237-21.06,107.63-25.92,216.1-19.9,325.41,2.95,53.63,2.67,107.46-4.19,160.83-9.22,71.74-28,141.41-49,210.48-19.85,65.32-42.52,129.2-92,179.43-6.18,6.27-5.66,14.89-.42,19.12,5.62,4.52,14,3,19.48-4.6,20.87-28.63,42-57.05,56.86-89.57,25-54.63,41-112.19,56.45-169.95,12.33-46.16,23.6-92.66,29.17-140.16,7.84-66.77,6.53-133.84,3.35-200.84-4.27-90.39,1.23-180.1,17.68-269.1,9.92-53.67,20.45-107.24,30.07-161,12.35-69,29.42-136.48,60-200.06,35.8-74.49,65.14-151.6,91-230.07,4-12.25,15.11-44.45,25.67-81.95H685.63c-26.53,91.08-56.87,179.7-98.4,270.84C565.8,317.85,543.49,364.53,531.13,415ZM1945.28,1810.71a14,14,0,0,0-13.6,13.76c0,7.61,5.73,13.42,13.51,13.57,8,.16,13.6-5.07,13.86-13A13.6,13.6,0,0,0,1945.28,1810.71Zm4.15-403.64c.15-8.19-5.83-14.45-13.65-14.29a14.37,14.37,0,0,0-13.54,13.81,13.64,13.64,0,0,0,13.59,13.47C1943.85,1420.19,1949.28,1415,1949.43,1407.07ZM1897.28,1434a13.59,13.59,0,0,0-13.26-14c-7.57-.15-13.48,5.75-13.57,13.54-.08,8.07,5.23,13.63,13.15,13.76S1897.17,1441.91,1897.28,1434ZM1153.33,455.23a607.17,607.17,0,0,0-35.72,76.89c-52,137.75-99.21,277-133.76,420.36-17.65,73.27-37.12,146.1-51.36,220.15-13.49,70.19-26.3,140.52-40,210.67-11.43,58.69-27,116.43-41,174.55-20.89,87.19-38.43,175.16-60.67,262Q782.4,1853,773.8,1886c-20.47,78.75-20.19,77.58-25.3,96.06-1.64,5.94-3.38,12-5.07,17.94h21.82c2-7.18,4-14.41,6-21.8,4-14.61,15.55-60.67,23.14-89.83q9.15-35.19,18.2-70.42c22.16-86.54,39.42-174.23,60.56-261,15.76-64.69,32.29-129.2,44.93-194.61,14.79-76.55,26.4-153.74,43.8-229.76,34.86-152.31,71.45-304.18,124.05-451.64,25.1-70.35,46.71-142.15,82.22-208.28,35.29-65.73,64.48-134,90.18-203.94,22.72-61.81,50.72-121.08,89.55-174.73,28.94-40,51.46-67.71,68.1-94h-24.47c-7.48,11.07-16.22,22.79-26.57,35.58-57.85,71.59-100.29,151.54-131,238.06C1211.66,336.18,1185.23,396.91,1153.33,455.23Zm604.73,523c.28,7.18,7,13.49,14.16,13.27a13.4,13.4,0,0,0,13-14.09c-.22-7.89-5.76-13.08-13.81-12.91A13.45,13.45,0,0,0,1758.06,978.19ZM1922,961.7a13.46,13.46,0,0,0,13.78,13.35c7.9,0,13.51-5.59,13.47-13.41a13.4,13.4,0,0,0-13.53-13.57A14,14,0,0,0,1922,961.7ZM406.22,423.47c-14.62,81.59-26.73,163.58-39.47,245.47-15.64,100.47-17,201.5-12.22,302.81,2.74,58.24,2.47,116.44-4.38,174.49a445,445,0,0,1-7.47,44.17c-1.51,6.83.7,13.37,8.69,15.07,7.81,1.65,12.2-2.74,14.18-10a21.76,21.76,0,0,0,1.18-5.71c0-13.73,2.57-27.17,4.11-40.74,7.82-68.78,6.42-137.71,3.33-206.7-4.53-101.07.83-201.6,17.48-301.5,9.24-55.46,17.86-111,26.42-166.6,9.15-59.4,22.66-117.6,50.5-171.31C525.29,193.56,562.65,93.78,591.5,0H569.77c-1.06,3.35-2.12,6.83-3.16,10-28.42,87.57-60.52,173.64-103.12,255.5C437.42,315.62,416.23,367.58,406.22,423.47Zm20.15,1552c-7.39-3-12.73,1.19-15.65,7.71-1.23,2.73-3.22,8.55-6.18,16.83H429.4q1.69-4.45,3-8.24C435,1984.61,433.56,1978.41,426.37,1975.46ZM301,1180.34c7.64,1.15,13.16-3.71,13.85-13.83,2.16-31.79,7-63.34,7.71-95.29,1.15-50.49-1.44-100.86-3.22-151.27a1540.73,1540.73,0,0,1,13.92-265.76c8-57.64,16.3-115.22,24.28-172.86,5.71-41.22,11.16-82.48,24-122.28C398.2,307.7,424,260.72,450.7,214.15c2.27-4,5-7.8,5.21-12.45.35-7.11-2.57-11.93-9.37-12.5-7.88-.14-12.08,4-14.23,9.72-8.93,23.88-22.5,45.41-34.21,67.85C370.33,320,351.29,375.91,343.21,435.51c-6.54,48.32-13.16,96.63-20.34,144.86C313.69,642.14,305,704,301,766.31c-5.05,77.75-2.48,155.48.68,233.22,2.23,54.68,1.54,109.3-9.62,163.25C290,1172.41,293.72,1179.23,301,1180.34Zm1590-442c-10.59,39.9-20.51,80.07-23.64,121.39-6,79.54,5.66,157,29.28,232.82,14.4,46.22,33,91,46.06,137.7,7.34,26.27,15.38,52.42,18.2,79.74.7,6.73,4,11.79,11,13.16,5,1,9.11-1.3,11.34-5.72,2.45-4.88,1.62-10.15.16-15.23-2-6.86-4.53-13.6-6-20.56A923.38,923.38,0,0,0,1942.25,1161c-24-66.1-45.9-132.7-52.57-203.27-4-42.27-4.52-84.41,2.27-126.51,6.22-38.58,16.64-76.17,26-114,21.66-87.36,34.23-176.74,58.57-263.52,5.64-20.1,13.45-54,23.46-91.33V289.66c-13,38.52-32.72,105.61-66.17,252.49C1919,607.4,1908.18,673.53,1891,738.3Zm109-181.66V506.26l-8.29,34.12C1989.91,547.77,1992.11,553.84,2000,556.64ZM1785.33,1413.7c.35-8.18-5.5-14.56-13.34-14.57-7.14,0-13.74,6.36-13.94,13.47a13.68,13.68,0,0,0,13.32,13.73C1779.48,1426.59,1785,1421.6,1785.33,1413.7Zm195.6-421.43c-3.8,5.33-3.56,11.24.56,16.3,5.08,6.25,11.62,6.34,18.51,3.15V988.28C1992.67,985,1985.89,985.31,1980.93,992.27ZM1679.45,1877a13.51,13.51,0,0,0-13.42,13.73c0,8.08,6.26,14,14.42,13.58a13.23,13.23,0,0,0,12.89-14.09A13.43,13.43,0,0,0,1679.45,1877ZM1654,1000.25c-.19,8.13,4.85,13.52,12.85,13.78,8.18.26,14.52-5.73,14.38-13.59a14.12,14.12,0,0,0-13.71-13.63C1660,986.7,1654.21,992.5,1654,1000.25Zm2.85-178a13.65,13.65,0,0,0-13.72,13.5,13.46,13.46,0,0,0,13.34,13.8c7.94.25,13.62-5,13.94-12.92C1670.77,828.38,1665,822.22,1656.87,822.29Zm-69-460.55c-.09,8.25,2.57,13.19,9.58,14,7.77,1,12-3.84,14.14-10.67,2.83-8.95,4.8-18.25,8.31-26.92,20.2-50,42.42-99.06,69.58-145.75,5.6-9.63,4.39-17.59-2.8-21.17s-14.36.58-18.6,10.63c-3,7.17-5.53,14.62-9.16,21.47-26.07,49.09-47.64,100.23-69,151.48A60.2,60.2,0,0,0,1587.88,361.74Zm-185.55,1115c2.81-50.68,7.06-101.23,16.87-151.08,16.19-82.27,40.84-162.49,60.16-244,5.6-23.65,10.9-47.48,19.58-70.35,3.32-8.73-.25-16.68-7-18.73s-13.44,2.88-15.66,12.13c-1.2,5-1.58,10.29-2.84,15.31-15.38,61.1-29.18,122.65-46.67,183.14-32.59,112.73-46.71,227.74-47.75,344.66-.74,82-4,163.86-15.55,245.19-9.34,65.55-39.37,146.1-66.22,207h23.09c31-70.17,67.58-170.88,74.38-299C1398.63,1626.26,1398.19,1551.41,1402.33,1476.7ZM984.57,1568c14.21-54.71,27.89-109.53,39-165,19.75-98.41,34.14-197.87,58.49-295.37,23.6-94.51,44.15-189.83,74.06-282.69,12.94-40.18,25-80.66,41.22-119.71,4.7-11.33.16-20.68-9.47-20.15-7.32.4-10.88,5.23-12.35,11.8A319.94,319.94,0,0,1,1164,735.1c-36.19,100.74-62.59,204.26-87.8,308.14-16.47,67.88-32.63,135.81-45,204.59-14.8,82.5-28.72,165.19-49.33,246.51-17,67.07-33.55,134.22-48.34,201.82-27.31,124.8-51.69,223.12-74,303.84h20.88c17.26-64.57,33.77-132.26,53-210.81C951.51,1715.69,965.54,1641.26,984.57,1568Zm632.7-1070.32A13.41,13.41,0,0,0,1631,484.18c.15-8.14-5.09-13.61-13.1-13.69-7.81-.09-13.88,5.61-14,13.16A14,14,0,0,0,1617.27,497.67Zm111.22,466.41c-.06-7.68-5.72-13.24-13.56-13.31s-13.58,5.32-13.74,13a13.65,13.65,0,1,0,27.3.27ZM1627.23,683c-2.2,13.48-6.11,26.55-8.49,37.92,0,9.84,3.57,14.73,9.87,15.41,7.06.76,13.12-4.37,13.78-13.3,1.28-17.25,5.27-34,8-51,13-80.53,28.35-160.6,47-240,8.75-37.28,15.85-75,26.94-111.72,3.06-10.12-.33-17.85-7.4-19.44-7.37-1.66-14.19,3.29-15.37,12.56-4.42,34.59-14.08,68-21.93,101.86C1659.05,503.89,1641.88,593.18,1627.23,683Zm85.68,438.27a13.66,13.66,0,1,0,13.27-13.8A13.32,13.32,0,0,0,1712.91,1121.24ZM1652.29,1706c-15.9-71.23-20.7-143.91-28.64-218.16,0-3.91.44-9.79-.09-15.59-.86-9.43-5.9-14.14-13.35-13.33-7,.77-11.37,7.38-10.21,16.16.85,6.42,2.77,12.72,3.41,19.16,5.22,52.68,10.16,105.38,17.49,157.84,4.51,32.21,12.76,63.6,19.48,95.32,2.13,10,9.77,14.31,17,10.51,7.93-4.18,8-11.16,5.23-18.46A239.44,239.44,0,0,1,1652.29,1706Zm-24.44-461c.18,1.09.45,3,.79,4.94,7,39,11,78.43,16.38,117.68,1,7.69.75,15.57,1.56,23.31.79,7.48,4.26,13.53,12.73,13.12,8.63-.42,11.07-6.7,10.8-14.41a30.25,30.25,0,0,0-.39-4.86c-7.27-36-10-72.69-15.83-108.89-1.89-11.64-.13-23.44-2.83-34.88-1.58-6.67-5.78-11.38-13.14-10.35S1628.1,1237.37,1627.85,1245.05Zm94.74-770.84c.77,6.15,2.83,11.18,9.4,12.27,7.32,1.22,12.17-2.56,13.85-9.3,1.72-6.9,1.77-14.2,3.38-21.14,6.67-28.76,12.42-57.74,20.84-86.09,2.73-9.2-1-16.54-8.07-18.14-6.31-1.42-12.55,3.69-14.43,12.6-1.81,8.56-2.38,17.4-4.48,25.87-6.5,26.13-10.95,52.78-19.41,78.43A42,42,0,0,0,1722.59,474.21ZM585.18,1561.94c7.16.27,13.85-6.12,14-13.4a13.15,13.15,0,0,0-12.56-13.44c-7.87-.41-13.93,4.89-14.34,12.54A13.62,13.62,0,0,0,585.18,1561.94ZM64.43,789.2a13.65,13.65,0,0,0-27.3-.64A13.28,13.28,0,0,0,50,802.72C58.13,803.15,64.4,797.29,64.43,789.2Zm-33.18,1069a13.4,13.4,0,0,0-13.66,13.45c-.15,7.83,5.29,13.55,13.15,13.8s13.79-5.1,14.16-12.81A13.49,13.49,0,0,0,31.25,1858.17ZM99.56,671.9a13.27,13.27,0,0,0,12.77-14.15,14,14,0,0,0-14.09-13.17,13.73,13.73,0,0,0-13.13,14C85.2,666.8,91.19,672.31,99.56,671.9ZM112,1507.83A13.91,13.91,0,0,0,98.1,1521.3c-.09,7.24,6.28,13.72,13.59,13.83,7.62.12,13.39-5.68,13.46-13.51S119.67,1507.9,112,1507.83Zm3.38-518.78c.38-8-4.77-13.91-12.47-14.42a13.68,13.68,0,1,0-1.6,27.3A13.12,13.12,0,0,0,115.37,989.05ZM56.58,1153A14.29,14.29,0,0,0,43,1166.76a13.36,13.36,0,0,0,13.57,13.44c8,.11,13.55-5.08,13.76-13A13.58,13.58,0,0,0,56.58,1153Zm-2.06,297.19A13.57,13.57,0,0,0,41,1463.8c0,7.72,5.63,13.41,13.45,13.55s13.61-5.17,13.86-13A13.33,13.33,0,0,0,54.52,1450.14ZM251.16,1782c-7.54.08-13.24,6.1-13.15,13.88.1,8.06,5.42,13.23,13.58,13.17a13.44,13.44,0,0,0,13.55-13.54A14.26,14.26,0,0,0,251.16,1782Zm32-70.51a13.66,13.66,0,1,0-27.31-.62,13.66,13.66,0,0,0,27.31.62Zm-33.94,149.22c-8,.17-13.21,5.61-13.1,13.6s5.5,13.11,13.58,13a13.29,13.29,0,1,0-.48-26.57Zm43.47,57.72c.63-7.18-6.33-13.78-13.57-13.65a14,14,0,0,0-13.48,13.92,13.18,13.18,0,0,0,14.12,12.91C288,1931.15,292,1926,292.71,1918.44ZM343,1902c-7.58-3-14.23,1.32-17.56,12.06a218.93,218.93,0,0,1-9.26,25.6c-8.67,19.14-17.39,39.32-27.27,60.37h22.69c.8-1.7,1.66-3.5,2.61-5.48,11.33-23.72,20.29-48.52,33-71.62C352.45,1913.4,350.22,1904.76,343,1902ZM0,988.28v23.44C8.19,1002.11,8.19,998,0,988.28ZM13.57,1709.1c.48-5.47-2.58-9-7.21-11.49A21.54,21.54,0,0,0,0,1695.75v25C6.47,1720.23,12.86,1717.26,13.57,1709.1ZM233.07,204.52c-32.61,54-57,111-64.09,174.25-2.56,22.93-4,46-6.2,69-.68,7.06-1.13,13.78,5.32,18.55a9.43,9.43,0,0,0,11,.76c7.35-4.09,7.21-11,6.88-17.9-1.36-29.08,1.86-57.84,6.51-86.42,9.27-56.84,33-108.05,63.94-155.88C328.56,95.19,341.47,67.94,371.45,0H347.92c-10.35,25.9-18.84,45.09-38.13,81.14C286.89,123.92,258.13,163.07,233.07,204.52ZM1867.38,1603.45c-13.53-43.66-19.42-88.73-23.06-134.14-.84-10.49-6.27-16-14-14.84-7.53,1.1-11.69,8.67-9.32,18.38a269,269,0,0,1,5.31,28.71c4.82,37,9.91,74,21.44,109.78,17.62,54.59,51.72,91.61,110,102.59,14,2.64,28,7.8,42.29,6.77v-25c-13.72-2.35-39.46.32-65.72-10.71C1897.7,1669.68,1878.56,1639.52,1867.38,1603.45ZM71.93,493.89c7,2.28,14.29-3.05,15.54-12.26,3.37-24.94,11.44-48.65,18.15-72.7C131.36,316.64,167.48,229,223.1,150.27c19.69-27.88,39.35-55.81,56-85.67C303.54,20.69,298.8,27.24,311.62,0H288.93c-17.82,38-39.5,78.93-72.11,122.37C137.41,228.11,98.29,351,64.52,476.27,62.54,483.6,63.05,491,71.93,493.89ZM15.6,540.56c.83-7.09,1.42-14.28,3.07-21.2,23.49-98.6,45.58-197.65,90.78-289.46,4.15-8.43,1.89-16-4.3-18.69-7.23-3.14-14.28.83-17.83,10.38-2.38,6.39-3.83,13.15-6.59,19.35C51.84,306,33.29,374.29,15.4,442.87L0,506.26v50.38C10.49,555.59,14.32,551.53,15.6,540.56ZM169.94,1521.3c-7.9,0-13.63,5.51-13.68,13.27a13.57,13.57,0,0,0,13.45,13.76,14.06,14.06,0,0,0,13.85-13.57C183.65,1527.19,177.74,1521.34,169.94,1521.3ZM42.45,220c-2.48-3.44-6.39-4.33-10.51-3.49-8.62,1.76-10.25,9-12.25,15.91-.18.62-.14,1.3-.32,1.92-4.77,16-10.49,29-19.37,55.37v72.69c11.07-41.23,24.83-86.61,41.48-122.25C44.59,233.43,47.35,226.78,42.45,220ZM288,401c-5.86,40.87-10.41,81.92-15.64,122.88-7.2,56.44-16.4,112.62-21.95,169.27-9.78,99.66-10.32,199.45-3.89,299.36,4.45,69.21-.54,137.78-16.82,205.36-2.44,10.17.73,17.46,8.13,18.92,7.65,1.51,14-3.48,14.9-14,1.78-20.46,6-40.5,8.92-60.76,9.78-67.74,6.84-135.62,3.3-203.62-4.76-91.18-1.16-182.19,9.56-272.85,5.62-47.45,12.38-94.77,18.78-142.13,5.66-41.89,9.15-84.05,16.22-125.75,9.55-56.29,31.86-107.7,60.74-156.36C426.4,146.65,451.32,88,487.57,0h-23.4c-4.93,12.77-13.87,34.62-33,80.42C407.57,136.68,375.71,188.57,346,241.56,317.91,291.55,296.18,343.89,288,401ZM134.79,1355.79a13.58,13.58,0,0,0,13.85,13.33c8-.07,13.91-6.42,13.46-14.57-.43-7.71-6.39-13.06-14.21-12.74A13.39,13.39,0,0,0,134.79,1355.79Zm35.05-261.66a13.73,13.73,0,0,0-14.17-14c-7.76.16-13.23,5.87-13.18,13.76s5.63,13.52,13.39,13.56A13.75,13.75,0,0,0,169.84,1094.13ZM166.06,1481a13.39,13.39,0,0,0-13.36-13.75,13.91,13.91,0,0,0-13.83,13.55,13.38,13.38,0,0,0,13.64,13.47C160.53,1494.31,166,1488.93,166.06,1481Zm51.18-460.73c-.12-7.9-5.63-13.26-13.52-13.14s-13.21,5.77-13.1,13.6A13,13,0,0,0,204.19,1034C212,1033.84,217.36,1028.2,217.24,1020.26Zm5.58-592.35c-1,10.59,2.89,18.29,10.56,18.86s12.78-6.12,12.86-17.2c.24-30.48,6-60.12,14.09-89.32,13.08-47.51,36.39-90.38,62.54-131.64C368.44,136.73,412.38,44.47,429.4,0H404.54c-11.46,32.14-38.12,103.34-97.33,193.73C260.4,265.2,230.85,342.59,222.82,427.91ZM208.65,1818.74a13.74,13.74,0,0,0-13.32,14c.1,7.74,5.91,13.26,13.82,13.15a13.32,13.32,0,0,0,13.47-13.64A14.11,14.11,0,0,0,208.65,1818.74ZM585.19,443.43c-14.41,60.33-23.47,121.82-39.93,181.7a27.32,27.32,0,0,0-.6,6.78c-.1,6.33,2.85,11,9,12.15s10.33-2.43,12.95-8c2.32-4.89,1.6-10.23,2.64-15.3,6.87-33.4,13.85-66.78,20.52-100.22,11.38-57.07,23.71-113.86,46.86-167.64,25-58.17,50.54-116.13,71.67-175.92,26.6-75.27,42.19-124.33,56.91-177H743.51c-25.6,90.64-56.71,185.51-103.14,291.67C618.75,341.11,597.79,390.65,585.19,443.43Zm1002.1-205.72c-7.34-3.6-14.58.6-18.89,11.64-9.77,25-23.67,47.84-38.32,70-39.57,59.9-70.77,123.88-99.36,189.66-46.42,106.79-86.22,216-123.34,326.18-18.23,54.15-29.79,110.36-49.1,164.23a20.32,20.32,0,0,0-.73,4.76c-.33,7.65,1.91,12.9,9.08,13.77,8.86,1.07,12.93-4.54,14.7-12.31,12.68-55.45,28.27-110.21,46.14-164.07,33.56-101.09,68.46-201.78,112.09-299.16,22.44-50.08,41-102,69.72-149.09,26.91-44.11,54.32-87.91,79.88-132.84C1595.45,249.42,1595.14,241.56,1587.29,237.71Zm-16.64,834.54a13.51,13.51,0,0,0-13.92,13.19,14,14,0,0,0,13.18,14.13,13.4,13.4,0,0,0,14.14-12.91C1584.49,1078.32,1578.9,1072.31,1570.65,1072.25Zm-13.52,437.84a13.81,13.81,0,0,0-13.19,14.19c.22,7.78,6.08,13.24,14,13s13.14-5.69,13-13.86A13.38,13.38,0,0,0,1557.13,1510.09Zm22-1387.2c.08,7.38,6.48,13.77,13.67,13.64a13.62,13.62,0,0,0,13.13-14c-.09-8.09-5.39-13.29-13.46-13.21A13.07,13.07,0,0,0,1579.15,122.89Zm-22.5,536.44c-.35-7.78-6.14-13.09-14-12.87a13.38,13.38,0,0,0-13.3,13.78,13.85,13.85,0,0,0,13.73,13.55C1551,673.83,1557,667.43,1556.65,659.33ZM1367.56,514.51c-63.89,146.16-113.59,297.27-158.84,450-2.59,8.76.14,15.92,6.67,17.84,7.31,2.14,13.61-2.21,16-11.63,1.69-6.59,2.33-13.47,4.14-20a3209.31,3209.31,0,0,1,119-350.53c33.55-82.8,69.23-164.72,97.29-249.67,15-45.33,28.19-91.27,45.37-135.86,21.6-56,52.38-107.45,81.09-159.89,2.5-4.56,5.74-8.72,6.47-14,1.1-8.11-3.62-13.77-14.32-13.42-4.26.2-7.9,5.16-9.88,11.27-4.86,15-12.77,28.44-20.42,42-31.65,56.17-60.4,113.54-79.69,175.42C1433.14,343.44,1404.31,430.45,1367.56,514.51Zm149.63,619.39a14,14,0,0,0,13.6-13.73,13.55,13.55,0,0,0-13.9-13.25c-8,.09-13.23,5.48-13.15,13.56C1503.83,1128.38,1509.48,1134,1517.19,1133.9ZM1357.38,847.58c-.51,8.11,4.42,13.81,12.36,14.3,7.76.48,14-4.81,14.61-12.4a13.41,13.41,0,0,0-12.67-14.36C1363.78,834.62,1357.86,839.78,1357.38,847.58ZM1527.52,1252a13.67,13.67,0,1,0,13.47,14.6A13.43,13.43,0,0,0,1527.52,1252ZM1428,670c.22,7.25,6.93,13.65,14.07,13.41a13.72,13.72,0,0,0,13.06-14.18c-.16-8-5.73-13.22-13.77-13A13.46,13.46,0,0,0,1428,670Zm-82.37,803.86c4.34-61.68,11-123.07,23-183.76s29.93-119.75,44.14-179.82c4.77-20.2,8.68-40.65,15.87-60.27,3.54-9.68,0-17.52-7.37-19.15-7.94-1.77-13.45,3-15.38,13.42-1.06,5.76-1.57,11.63-3,17.29-11,44.79-21.28,89.8-33.54,134.25-25.53,92.6-38.64,187.08-44.93,282.65-5,75.34-2.14,151-8,226.32-4.83,62.45-14,123.94-34.32,183.49-12.72,37.32-29.87,76.16-46.62,111.7h23.16c36.21-76.26,75.14-171.7,81.09-331.94C1342.29,1603.34,1341.1,1538.53,1345.66,1473.88Zm64.11-1250.14c-23.92,83.81-50.76,166.75-85.4,246.66C1259.24,620.63,1207,775.29,1160.13,931.92c-.74,2.49-1.28,5-1.94,7.64.71,5.84,2.59,11,9,12.39,6.89,1.51,11.75-2.14,13.64-8.18,2.5-8,3.13-16.6,5.49-24.67,37.7-129.2,79.7-257,132.65-380.81,37.22-87,71.5-175.16,97.64-266.1,19.54-68,44.57-133,83.18-192.5,8-12.26,13.8-25.82,22.57-37.62a20.55,20.55,0,0,0,1.92-3.39c3.89-8,2.32-16-3.66-18.77-6.33-2.9-14,.08-17.37,8.32-9.34,23.06-23,43.72-35.72,64.82C1442.7,134.18,1423,177.54,1409.77,223.74Zm80.17,462.4a13.69,13.69,0,0,0-13.36,13.71c0,8.08,6.05,13.78,14.31,13.4a13.31,13.31,0,0,0,13-13.9A13.85,13.85,0,0,0,1489.94,686.14ZM464.8,436.14c-13.56,73.49-26.35,147.13-39.61,220.68-17.06,94.57-21.5,189.86-17.9,285.77,2.28,60.74,6.67,121.59-2.5,182.22-1.27,8.39,4.24,15.85,10.95,15.65,8.41-.25,12.32-5.92,12.14-13.58-.36-15.65,1.24-31.2,1.83-46.79,2.34-61.54-1.86-123-2.81-184.48-1.13-73.37,3.63-146.31,16-218.67,10.45-61.18,21.79-122.21,31.83-183.46,11.32-69.05,29.61-135.76,61.18-198.54C585.76,195.76,621.6,95.42,650.12,0H628.45C589,129.22,550.79,219.58,508.39,305.18A497.62,497.62,0,0,0,464.8,436.14ZM1795.44,482c6.64-2.67,8.51-8.81,9-15.05a122,122,0,0,1,3.3-21.13c12.43-47.72,20.18-96.51,33.07-144.13,2.37-8.77-1.06-15.5-8-17.31S1820,286.79,1818,296c-1.44,6.62-1.52,13.55-3,20.18q-12.26,57.09-24.94,114.08c-3,13.27-6.68,26.38-9.93,39.06C1780.08,479.21,1787.44,485.17,1795.44,482ZM1834,948.89c0-7.74-5.72-13.42-13.56-13.44a13.25,13.25,0,0,0-13.67,13.42,14,14,0,0,0,13.67,13.73A13.65,13.65,0,0,0,1834,948.89Zm11.48-463.29c7.24,1.26,12-3.2,13.61-9.76,1.82-7.21,2-14.83,3.65-22.09,10.5-45.22,21.5-90.32,31.83-135.57,17.57-77,50-148.07,85.69-217.89,3.24-6.34,7.62-12.09,10.86-18.43a11.17,11.17,0,0,0-2.16-13.53,10.21,10.21,0,0,0-11.56-2.68c-5.43,2-8.36,6.12-10.18,11.1-3.48,9.48-8,18.43-12.53,27.45-22.56,45.38-44.35,91.13-60.33,139.34-21.7,65.45-34.12,133.28-50.6,200.07-2.41,9.74-5.4,19.34-7.83,28C1836,479.32,1838.79,484.45,1845.44,485.6ZM1420.94,75.74c6.21,4.41,14.4,2,19.27-7,11-20.32,26.32-41,40.15-68.74h-23c-10.68,21-23.14,39.82-36.45,55.21C1414,63.2,1414.65,71.28,1420.94,75.74Zm494.62,399.13c2.22-8.09,2.68-16.65,4.66-24.82,8.64-35.64,17.23-71.3,26.46-106.78,9.14-35.17,18.4-70.33,33.6-103.58,4.4-9.64,1.74-17-5.69-19.65-7-2.47-13.62,2.27-16.66,12.23-1.51,5-2.18,10.2-4,15-22,60.56-35.56,123.44-50.8,185.84-3.08,12.62-7.48,24.84-10.32,37.06.27,6.95,2.79,12.25,9.47,13.54S1913.9,481,1915.56,474.87Zm-3.51,1286.78c2.15-7-1.64-13.18-10.32-16.07-7.07-2.34-14.54-3.61-21.44-6.33-54.17-21.42-92.35-59.22-114.68-113-17.26-41.56-23.22-85.64-29.38-129.74-1.89-13.57-1.31-27.25-3.31-40.74-1.09-7.33-5.38-11.93-13.32-11.12s-9.46,6.83-10.32,13.72c1.22,6.32,2.88,13,3.73,19.7,4.58,36.08,9.2,72.11,17.38,107.64,21,91.14,75.31,152,163.79,182.34C1902.55,1770.91,1910,1768.19,1912.05,1761.65Zm-955-314.9c17.74-75.67,29.36-152.51,43.68-228.84,20.94-111.52,49.52-221.28,79.06-330.75,19.47-72.16,42-143.37,69.3-213,3.85-9.86,1.45-17.7-5.67-19.82-7.5-2.23-13.65,2.3-16.54,12.38-2.06,7.18-3.42,14.6-5.94,21.6-36.35,101-65.66,204.06-91.22,308.25-16.34,66.58-33.38,133-45.9,200.44-12.15,65.5-23.93,131.07-36.51,196.49-11.36,59-27,117.12-40.92,175.59C876.9,1693.27,850,1818.1,817,1941.5c-1.28,4.81-11.36,43.27-15.41,58.5H823l2-7.64c31.27-117.1,59.5-234.93,86.15-353.16C925.68,1574.87,942,1511,957.07,1446.75Zm404-1162.64a13.8,13.8,0,0,0-13.55-13.71A13.21,13.21,0,0,0,1334,283.84c-.09,7.94,5.25,13.35,13.24,13.4C1355,297.29,1361,291.6,1361.09,284.11ZM644.3,452.63C627.22,525,612.79,598.05,594,670.06c-3.6,13.82-7.31,27.61-10.69,41.49-1.51,6.2-.05,11.93,6.07,14.94,5.27,2.59,10.2,1,13.91-3.54,3-3.7,3.48-8.25,4.16-12.78,1.15-7.7,2.23-15.45,4-23,11.59-50,23.74-99.87,35-149.95,12.23-54.52,22.44-109.65,44.21-161.45,38.8-92.3,74.73-185.63,104.66-281.21C809.43,49.4,809.5,50.4,823,0H801.61c-.74,2.78-1.31,4.88-1.55,5.76-27.87,98.89-60.58,196.16-99.65,291.2C679.42,348.05,657.05,398.57,644.3,452.63Zm1262.17,1477a13.25,13.25,0,0,0-13.21,13.77A14.07,14.07,0,0,0,1907,1957a13.59,13.59,0,0,0,13.5-14.59C1920.14,1934.56,1914.47,1929.42,1906.47,1929.67ZM379.79,1950.32c-7.75-2.75-12.92,1.67-15.42,8-6.66,16.76-11.75,29.93-16.45,41.7h23.53c4.24-9.63,8.83-20.06,14-31.67C389.05,1960.15,386.53,1952.71,379.79,1950.32Zm1078.14-402.41c-.1-6.8,1.2-13.63,1-20.42-.16-6.44-3.34-11.24-10.46-11.85-7.78-.67-11,4.33-12.59,10.88a19.58,19.58,0,0,0-.2,6.79c3.15,25,1.45,50,.54,75-2.7,74.06-9.13,148-4.71,222.26.88,14.9.34,29.92,0,44.87-1.2,46.39-9.84,79.92-40,124.55H1416c20.68-32.64,32.28-63,35.65-111.84,2-29.64.93-59.14-.16-88.71C1448.38,1715.47,1459.25,1631.85,1457.93,1547.91Zm48.14,85.75c-6.89-.43-11.92,5.16-12.74,14.33-.2,2.25.07,4.54,0,6.81-.15,6.49-.16,13-.55,19.46-2.37,39-5,77.85-3.43,116.94,1,26,1.28,52,1.15,78-.24,46.69-13.63,92.43-33.18,130.79h23a291.34,291.34,0,0,0,19.86-50.73c13.21-46.07,12.72-93.16,10.59-140.32a1051.38,1051.38,0,0,1,2.06-121.83c.87-12.32,2-24.58,4-36.78C1518.44,1641.31,1513.28,1634.11,1506.07,1633.66Z"/></g></g></svg>