<?xml version="1.0" encoding="utf-8"?>
<!-- Generator: Adobe Illustrator 24.3.0, SVG Export Plug-In . SVG Version: 6.00 Build 0)  -->
<svg version="1.1" id="Ebene_1" xmlns="http://www.w3.org/2000/svg" xmlns:xlink="http://www.w3.org/1999/xlink" x="0px" y="0px"
	 viewBox="0 0 181.4 181.4" style="enable-background:new 0 0 181.4 181.4;" xml:space="preserve">
<style type="text/css">
	.st0{fill:#FFFFFF;}
	.st1{clip-path:url(#SVGID_2_);fill:#E5310E;}
	.st2{clip-path:url(#SVGID_2_);}
	.st3{clip-path:url(#SVGID_4_);fill:#ECECED;}
	.st4{clip-path:url(#SVGID_4_);fill:#FFFFFF;}
	.st5{clip-path:url(#SVGID_2_);fill:#ECECED;}
	.st6{clip-path:url(#SVGID_6_);fill:#FFFFFF;}
	.st7{clip-path:url(#SVGID_6_);fill:#ECECED;}
</style>
<ellipse class="st0" cx="90.6" cy="89.9" rx="86.5" ry="87.1"/>
<g>
	<defs>
		<rect id="SVGID_1_" width="181.4" height="181.4"/>
	</defs>
	<clipPath id="SVGID_2_">
		<use xlink:href="#SVGID_1_"  style="overflow:visible;"/>
	</clipPath>
	<path class="st1" d="M175.7,90.7c0,47-38.1,85-85,85s-85-38.1-85-85s38.1-85,85-85S175.7,43.7,175.7,90.7 M178.6,90.7
		c0-48.5-39.3-87.9-87.9-87.9S2.8,42.2,2.8,90.7s39.3,87.9,87.9,87.9S178.6,139.2,178.6,90.7"/>
	<path class="st1" d="M90.7,141.7c28.2,0,51-22.8,51-51c0-28.2-22.8-51-51-51s-51,22.8-51,51C39.7,118.9,62.5,141.7,90.7,141.7"/>
	<g class="st2">
		<defs>
			<rect id="SVGID_3_" x="46.2" y="47.4" width="89.1" height="89.1"/>
		</defs>
		<clipPath id="SVGID_4_">
			<use xlink:href="#SVGID_3_"  style="overflow:visible;"/>
		</clipPath>
		<path class="st3" d="M123.4,88.6l3.2-1.9L113,74.2l8.8,3.1l3-2.5L112,68.5l7,0.5l2-3.3L110.5,64l5.3-1.5l0.4-2.1l-0.3,0
			c0,0-5.1,0.2-9.2,0.4c-1.7,0.1-3,1.3-3.2,2.9c-0.1,0.6,0.1,1.5,0.3,2.6c0.2,1.1,0.4,2.4,0.4,3.6c0,2.1-0.6,3.7-1.9,4.9
			c-1.6,1.5-4,2-5.7,1.9c-2.3-0.1-3.1-1.2-3.4-2c-0.1-0.5-0.2-1.5,1-1.8c2.5,2.6,5.8,1.8,5.9-0.3c-1.1,1-2.9,0.3-4-2.5
			c1.6,0.6,3.1-0.7,2.7-2.2c-1.4,1.1-2.8,0.2-2.4-0.9c0.6-1.7,5.2-0.9,4.5,2.3c1.8-2.4-0.4-5.4-4.2-5.4c1.3-0.4,4.8-1.7,2.8-4.5
			c0.4,2.4-3.6,2.5-5,2.6c1.7-0.5,2.8-1.3,2-3.2c-0.2,1.4-1.8,1.5-3.4,1.5c-1.9,0-5.4,0-5.9,0c-0.5,0.3-0.7,0.8-1,1.3
			c-0.9-0.3-1.9-0.3-2.3,0.6c-0.4,0.9,0.2,1.9,1,2.4c-0.1-1.6,3.7-0.7,4.3,1.6c-2.5-0.1-4.4,0.5-3.8,2.7c0.5-1,2.5-1.2,4-0.9
			c0,0.9,0,2-0.6,2.1c-0.6,0.1-1-0.6-0.8-1.3c-0.6,0.1-0.8,0.9-0.8,1.4c-2.9-2-6.5,0.3-5,3.7c-0.1-1.7,2-3.5,4.2-1.9
			c-1.3,0.4-1.8,2.9-0.2,3.1c-0.2-0.9,0.5-1.6,1.4-1.6c0.6,0,1.2,0.3,1.3,0.8c0,0.2,0,0.6-0.2,1c-0.3,0.6-1.3,1.2-3.8,1.4
			c-1.7,0.1-4-0.4-5.7-1.9c-1.3-1.2-1.9-2.9-1.9-5c0-1.3,0.2-2.5,0.4-3.6c0.2-1,0.3-2,0.3-2.6c-0.2-1.6-1.6-2.8-3.2-2.9
			c-4.1-0.2-9.2-0.4-9.2-0.4l-0.3,0l0.4,2.1l5.3,1.5l-10.5,1.8l2,3.3l7-0.5l-12.8,6.3l3,2.5l8.8-3.1L54.8,86.7l3.2,1.9l10.6-7.2
			L56.1,102l4.6,0.8l11.4-15.9l-6.9,23.5l5-0.7l7.3-20.3l-1.2,12.6l4.7-4.3l1.5-7.7c0.2,1.9,0.4,5.7-0.9,8.5c-1.4,2.9-5.7,6-5.7,6.1
			l7.7,2.4c0,0,1-0.9,2-2.6c0.1-0.2,0.3-0.5,0.4-0.8h2.5c0,0.4,0,0.8,0,1.3c-0.2,4.9-5.7,6.7-7.2,2.9c-1.5,3.9,2.4,5.6,5.3,4.6
			c-4.1,2.8-10,1.6-9.2-1.8c-2.5,3.9,1.1,6.2,3.8,6.5c-2.1,3,0.1,7.2,4.2,6.4c-0.8-0.1-3-1.2-2.6-3.5c0.2-1.3,1.4-2,2.3-2.2
			c1-0.1,2,0.2,2,1.3c0,0.8-1.2,1.6-2,1.2c0.7,1.4,2.6,1.3,3.2,0.5c-0.1,0.9-0.6,3-0.1,4.9c0.4,1.3,1.1,2.1,2.6,2.6
			c1.5-0.6,2.2-1.3,2.6-2.6c0.6-1.9,0-4.1-0.1-4.9c0.5,0.8,2.5,0.8,3.2-0.5c-0.8,0.4-2-0.3-2-1.2c0-1.1,1-1.4,2-1.3
			c1,0.1,2.1,0.8,2.3,2.2c0.4,2.3-1.8,3.4-2.6,3.5c4.1,0.9,6.3-3.4,4.2-6.4c2.8-0.3,6.3-2.6,3.8-6.5c0.7,3.5-5.2,4.6-9.2,1.8
			c2.9,1,6.8-0.7,5.3-4.6c-1.5,3.8-6.9,2-7.1-2.9c0-0.5,0-0.9,0-1.3h2.4c0.1,0.3,0.3,0.5,0.4,0.8c1,1.7,2.1,2.6,2.1,2.6l7.3-2.3
			c0,0-4.1-3.2-5.5-6.2c-1.3-2.8-1.1-6.6-0.9-8.5l1.5,7.6l0,0.1l4.7,4.3l-1.2-12.6l7.3,20.3l5,0.7l-6.9-23.5l11.4,15.9l4.6-0.8
			l-12.5-20.5L123.4,88.6z M88.3,63.3c-0.7,0-1.2-0.6-1.2-1.2h0.3c0,0.4,0.3,0.7,0.7,0.7c0.4,0,0.7-0.3,0.7-0.7h0.8
			C89.5,62.7,88.9,63.3,88.3,63.3 M96.7,90.9c0,3.3-2.7,6.1-6,6.1s-6-2.7-6-6.1V79.6h12.1V90.9z"/>
		<rect x="87.7" y="57.6" class="st3" width="5.8" height="2"/>
		<polygon class="st3" points="94,54.8 92.4,54.8 92.4,56.2 91.4,56.2 91.4,54.8 89.8,54.8 89.8,56.2 88.9,56.2 88.9,54.8 
			87.3,54.8 87.3,56.9 94,56.9 		"/>
		<path class="st3" d="M83,67.4c1.9-0.2,2.5-1.9,5.8-1.4c-0.5-1-1.4-1.5-2.6-1.4c-1.5,0.1-2.6,1.2-3.8,1.1c-1.2,0-0.9-0.9-1-1.3
			C80,65.1,80.3,67.6,83,67.4"/>
		<path class="st4" d="M70.5,107.9c-0.3-0.3-0.7-0.4-1.1-0.5c-0.3,0-0.6,0-1,0.1l-0.1-1.2c0.6-0.1,1.2-0.2,1.9-0.5l0.6-0.2l-0.1-0.6
			c0-0.2-0.1-0.5-0.2-0.8l-0.1-0.6l-0.6,0.1c-0.2,0-0.5,0.1-0.8,0.1c-2.4,0-4.4-2-4.4-4.4s2-4.4,4.4-4.4c0.7,0,1.3,0.1,1.9,0.4
			l0.7-1.1c-1.2-1-2.7-1.6-4.3-1.6c-3.7,0-6.7,3.1-6.7,6.9c0,1.9,0.8,3.8,2.2,5.1c0.7,0.6,1.4,1.1,2.3,1.4l0.2,2.7
			c-0.3,0.1-0.5,0.5-0.5,1c0,0.4,0.1,0.7,0.3,0.9c-0.1,0.2-0.1,0.4-0.1,0.7c0,0.4,0.1,0.7,0.3,0.9c-0.1,0.2-0.1,0.4-0.1,0.6
			c0,0.6,0.3,1.1,0.6,1.1l0.2,2.1l0.1,0.7l0.7-0.1l1.9-0.2l0.7-0.1l-0.1-0.7l-0.2-1.8c0.3,0,0.5-0.3,0.6-0.7l0.1,0l0.1,0
			c0,0,0.4-0.3,0.8-0.9l11.6-5.5l-6.3-2L70.5,107.9z"/>
		<path class="st4" d="M119.7,95.3l-2.6-0.3l0,0l0.1-1l0.1-0.7l-0.7-0.1l-2.2-0.2l-0.7-0.1l-0.1,0.7l-0.1,1l-2.7-0.3l-0.7-0.1
			l-0.1,0.7l-0.3,3l-0.1,0.7l0.7,0.1l2.7,0.3v0l-0.7,8.4c-0.3,0-0.5,0-0.8,0c-0.4,0-0.8,0.2-1.1,0.5l-5.3-3.3l-6.3,2l11.7,5.5
			c0.3,0.5,0.7,0.7,0.7,0.7l0.1,0l0.1,0c0.1,0.3,0.2,0.5,0.4,0.6l-0.2,1.9l-0.1,0.7l0.7,0.1l2.2,0.2l0.7,0.1l0.1-0.7l0.2-2.2h0
			c0.4,0,0.7-0.4,0.7-1.1c0-0.2,0-0.4-0.1-0.6c0.2-0.2,0.3-0.5,0.3-0.9c0-0.3,0-0.5-0.1-0.7c0.2-0.2,0.3-0.5,0.3-0.9
			c0-0.6-0.2-1-0.5-1l0.8-9.3l2.6,0.3l0.7,0.1L120,99l0.3-3l0.1-0.7L119.7,95.3z"/>
		<path class="st4" d="M84.3,90.9c0,3.5,2.9,6.4,6.4,6.4c3.5,0,6.4-2.9,6.4-6.4V79.2H84.3V90.9z M95.4,79.9h0.7V85h-0.7V79.9z
			 M95.4,90.7h0.7v1.9c-0.2,0.5-0.4,1-0.7,1.4V90.7z M94,79.9h0.7V85H94V79.9z M94,90.7h0.7V95c-0.2,0.2-0.4,0.4-0.7,0.6V90.7z
			 M92.5,79.9h0.7V85h-0.7V79.9z M92.5,90.7h0.7V96c-0.2,0.1-0.4,0.2-0.7,0.3V90.7z M91,79.9h0.7V85H91V79.9z M91,90.7h0.7v5.8
			c-0.2,0-0.4,0.1-0.7,0.1V90.7z M89.6,79.9h0.7V85h-0.7V79.9z M89.6,90.7h0.7v5.9c-0.2,0-0.5,0-0.7-0.1V90.7z M88.1,79.9h0.7V85
			h-0.7V79.9z M88.1,90.7h0.7v5.6c-0.2-0.1-0.5-0.2-0.7-0.3V90.7z M86.7,79.9h0.7V85h-0.7V79.9z M86.7,90.7h0.7v4.9
			c-0.2-0.2-0.5-0.4-0.7-0.6V90.7z M85.2,79.9h0.7V85h-0.7V79.9z M85.2,90.7h0.7V94c-0.3-0.4-0.5-0.9-0.7-1.4V90.7z"/>
	</g>
	<polygon class="st5" points="112.4,115.7 114.6,115.9 116,99.3 113.8,99.1 	"/>
	<polygon class="st5" points="116.4,94 114.2,93.8 114.1,94.8 116.3,95 	"/>
	
		<rect x="113.5" y="92.6" transform="matrix(9.830991e-02 -0.9952 0.9952 9.830991e-02 7.0705 201.9052)" class="st5" width="3" height="8.9"/>
	<g class="st2">
		<defs>
			<rect id="SVGID_5_" x="46.2" y="47.4" width="89.1" height="89.1"/>
		</defs>
		<clipPath id="SVGID_6_">
			<use xlink:href="#SVGID_5_"  style="overflow:visible;"/>
		</clipPath>
		<path class="st6" d="M116.4,109.7c0-0.3,0-0.5-0.1-0.7l-0.2-0.4h-4l-0.2,0.4c-0.1,0.2-0.1,0.4-0.1,0.7c0,0.2,0,0.4,0.1,0.6
			l-0.1,0.2c-0.1,0.2-0.1,0.4-0.1,0.7c0,0.2,0,0.4,0.1,0.5l-0.1,0.3c-0.1,0.2-0.1,0.4-0.1,0.7s0,0.5,0.1,0.7l0.2,0.4h4l0.2-0.4
			c0.1-0.2,0.1-0.4,0.1-0.7c0-0.2,0-0.4-0.1-0.5l0.1-0.3c0.1-0.2,0.1-0.4,0.1-0.7c0-0.2,0-0.4-0.1-0.6l0.1-0.2
			C116.3,110.2,116.4,110,116.4,109.7"/>
		<path class="st7" d="M69.8,104.4c-0.3,0-0.6,0.1-0.9,0.1c-2.8,0-5.1-2.3-5.1-5.1c0-2.8,2.3-5.1,5.1-5.1c0.8,0,1.5,0.2,2.2,0.5
			c-1.1-0.9-2.4-1.5-3.9-1.5c-3.3,0-6,2.8-6,6.2c0,1.8,0.7,3.4,2,4.6c0.7,0.7,1.5,1.1,2.4,1.4l0,0l0.9,10.3l1.9-0.2l-0.9-10
			c0.8,0,1.5-0.1,2.4-0.5C70,105,69.9,104.7,69.8,104.4"/>
		<path class="st6" d="M69.5,112l-0.1-0.3c0-0.2,0.1-0.3,0.1-0.5c0-0.3,0-0.5-0.1-0.7l-0.1-0.2c0.1-0.2,0.1-0.4,0.1-0.6
			c0-0.3,0-0.5-0.1-0.7l-0.2-0.4h-4l-0.2,0.4c-0.1,0.2-0.1,0.4-0.1,0.7c0,0.3,0,0.5,0.1,0.7l0.1,0.2c-0.1,0.2-0.1,0.4-0.1,0.6
			c0,0.3,0,0.5,0.1,0.7l0.1,0.3c0,0.2-0.1,0.3-0.1,0.5c0,0.3,0,0.5,0.1,0.7l0.2,0.4h4l0.2-0.4c0.1-0.2,0.1-0.4,0.1-0.7
			C69.6,112.5,69.6,112.2,69.5,112"/>
		<path class="st7" d="M71.2,109.6c0,0.6-0.1,1.2-0.2,1.6l3.8-1.8l-1.3-2.5l-2.6,1.6C71.1,108.8,71.2,109.1,71.2,109.6"/>
		<polygon class="st7" points="75.4,109.1 80.3,106.7 76,105.4 74.1,106.5 		"/>
		<path class="st7" d="M76.9,122.7c0-0.1,0.1-0.3,0.1-0.4c0-0.9-0.8-1.7-1.7-1.7c0,0,0,0-0.1,0c0,0,0-0.1,0-0.1
			c0-0.9-0.7-1.6-1.5-1.7c0-0.1,0-0.2,0-0.3c0-0.3-0.1-0.6-0.2-0.8c0.6-0.3,1-0.9,1-1.5c0-0.5-0.2-0.9-0.5-1.2
			c0.3-0.3,0.5-0.7,0.5-1.2c0-0.5-0.2-0.9-0.5-1.2c0.4-0.3,0.6-0.8,0.6-1.3c0-0.9-0.8-1.7-1.7-1.7c-0.9,0-1.7,0.8-1.7,1.7
			c0,0.5,0.2,0.9,0.5,1.2c-0.4,0.3-0.6,0.8-0.6,1.3c0,0.5,0.2,0.9,0.5,1.2c-0.3,0.3-0.5,0.7-0.5,1.2c0,0.3,0.1,0.6,0.2,0.8
			c-0.6,0.3-1,0.9-1,1.5c0,0.9,0.7,1.6,1.5,1.7c0,0.1,0,0.2,0,0.3c0,0.9,0.8,1.7,1.7,1.7c0,0,0,0,0.1,0c0,0,0,0.1,0,0.1
			c0,0.8,0.6,1.5,1.3,1.6c0,0.1-0.1,0.3-0.1,0.4c0,0.6,0.4,1.2,1,1.5l0.4-0.8c-0.3-0.1-0.4-0.4-0.4-0.7c0-0.3,0.1-0.5,0.3-0.6
			c0,0,0.1-0.1,0.1-0.1c0.1,0,0.2-0.1,0.3-0.1c0.3,0,0.6,0.2,0.7,0.5l0.8-0.4C77.8,123.2,77.4,122.8,76.9,122.7 M73,110.4
			c0.4,0,0.8,0.3,0.8,0.8S73.4,112,73,112s-0.8-0.3-0.8-0.8S72.6,110.4,73,110.4 M72.1,113.7c0-0.4,0.3-0.8,0.8-0.8
			c0.4,0,0.8,0.3,0.8,0.8c0,0.4-0.3,0.8-0.8,0.8C72.4,114.5,72.1,114.1,72.1,113.7 M73.6,116.1c0,0.4-0.3,0.8-0.8,0.8
			c-0.4,0-0.8-0.3-0.8-0.8c0-0.4,0.3-0.8,0.8-0.8C73.3,115.4,73.6,115.7,73.6,116.1 M71.3,118.5c0-0.4,0.3-0.8,0.8-0.8
			c0.4,0,0.8,0.3,0.8,0.8c0,0.4-0.3,0.8-0.8,0.8C71.6,119.3,71.3,118.9,71.3,118.5 M72.7,120.5c0-0.4,0.3-0.8,0.8-0.8
			c0.4,0,0.8,0.3,0.8,0.8c0,0.4-0.3,0.8-0.8,0.8C73.1,121.3,72.7,120.9,72.7,120.5 M74.5,122.3c0-0.4,0.3-0.8,0.8-0.8
			c0.4,0,0.8,0.3,0.8,0.8c0,0.3-0.1,0.5-0.3,0.6c0,0-0.1,0.1-0.1,0.1c-0.1,0-0.2,0.1-0.3,0.1C74.8,123.1,74.5,122.7,74.5,122.3"/>
		<polygon class="st7" points="107.2,106.8 105.1,105.5 100.8,106.9 105.9,109.3 		"/>
		<path class="st7" d="M109.9,109.6c0-0.4,0.1-0.7,0.2-1l-2.4-1.4l-1.3,2.4l3.7,1.8C110,110.8,109.9,110.3,109.9,109.6"/>
		<path class="st7" d="M110.7,118.5c0-0.7-0.4-1.3-1-1.5c0.1-0.2,0.2-0.5,0.2-0.8c0-0.5-0.2-0.9-0.5-1.2c0.3-0.3,0.5-0.7,0.5-1.2
			c0-0.5-0.3-1-0.6-1.3c0.3-0.3,0.5-0.7,0.5-1.2c0-0.9-0.8-1.7-1.7-1.7c-0.9,0-1.7,0.8-1.7,1.7c0,0.5,0.3,1,0.6,1.3
			c-0.3,0.3-0.5,0.7-0.5,1.2c0,0.5,0.2,0.9,0.5,1.2c-0.3,0.3-0.5,0.7-0.5,1.2c0,0.7,0.4,1.3,1,1.5c-0.1,0.2-0.2,0.5-0.2,0.8
			c0,0.1,0,0.2,0,0.3c-0.8,0.1-1.5,0.8-1.5,1.7c0,0,0,0.1,0,0.1c0,0,0,0-0.1,0c-0.9,0-1.7,0.8-1.7,1.7c0,0.2,0,0.3,0.1,0.4
			c-0.5,0.1-1,0.5-1.2,1l0.8,0.4c0.1-0.3,0.4-0.5,0.7-0.5c0.1,0,0.2,0,0.3,0.1c0,0,0.1,0.1,0.1,0.1c0.2,0.1,0.3,0.4,0.3,0.6
			c0,0.3-0.2,0.6-0.4,0.7l0.4,0.8c0.6-0.3,1-0.9,1-1.5c0-0.2,0-0.3-0.1-0.4c0.8-0.2,1.3-0.8,1.3-1.6c0,0,0-0.1,0-0.1c0,0,0,0,0.1,0
			c0.9,0,1.7-0.8,1.7-1.7c0-0.1,0-0.2,0-0.3C110.1,120.1,110.7,119.4,110.7,118.5 M108.1,110.4c0.4,0,0.8,0.4,0.8,0.8
			c0,0.4-0.3,0.8-0.8,0.8c-0.4,0-0.8-0.4-0.8-0.8C107.3,110.8,107.7,110.4,108.1,110.4 M107.5,113.7c0-0.4,0.3-0.8,0.8-0.8
			c0.4,0,0.8,0.3,0.8,0.8s-0.3,0.8-0.8,0.8C107.8,114.5,107.5,114.1,107.5,113.7 M108.3,115.4c0.4,0,0.8,0.3,0.8,0.8
			s-0.3,0.8-0.8,0.8c-0.4,0-0.8-0.3-0.8-0.8S107.8,115.4,108.3,115.4 M105.9,123.1c-0.1,0-0.2,0-0.3-0.1c0,0-0.1-0.1-0.1-0.1
			c-0.2-0.1-0.3-0.4-0.3-0.6c0-0.4,0.3-0.8,0.8-0.8c0.4,0,0.8,0.3,0.8,0.8S106.3,123.1,105.9,123.1 M107.6,121.3
			c-0.4,0-0.8-0.3-0.8-0.8c0-0.4,0.3-0.8,0.8-0.8c0.4,0,0.8,0.3,0.8,0.8C108.4,120.9,108,121.3,107.6,121.3 M109.1,119.3
			c-0.4,0-0.8-0.3-0.8-0.8c0-0.4,0.3-0.8,0.8-0.8c0.4,0,0.8,0.3,0.8,0.8C109.8,118.9,109.5,119.3,109.1,119.3"/>
		<path class="st7" d="M69.4,108.1c-0.2,0-0.5,0-0.9,0.1l0,0.5h0.1c0.4,0,0.7,0.4,0.7,1.1c0,0.3,0,0.5-0.1,0.7
			c0.2,0.2,0.3,0.5,0.3,0.9c0,0.2,0,0.4-0.1,0.6c0.1,0.1,0.2,0.3,0.2,0.5c0.3-0.3,0.9-1.1,0.9-2.8C70.5,108.7,69.9,108.2,69.4,108.1
			"/>
		<path class="st7" d="M111.7,111.3c0-0.4,0.1-0.7,0.3-0.9c-0.1-0.2-0.1-0.4-0.1-0.7c0-0.6,0.2-1,0.5-1l0-0.6c-0.2,0-0.4,0-0.6,0
			c-0.6,0.1-1.1,0.5-1.1,1.4c0,1.7,0.6,2.5,0.9,2.8c0-0.2,0.1-0.4,0.2-0.5C111.7,111.7,111.7,111.5,111.7,111.3"/>
		<path class="st7" d="M112.5,110.1h3.1c0-0.1,0.1-0.2,0.1-0.4s0-0.3-0.1-0.4h-3.1c0,0.1-0.1,0.2-0.1,0.4
			C112.5,109.9,112.5,110.1,112.5,110.1"/>
		<path class="st7" d="M112.4,111.7h3.1c0-0.1,0.1-0.2,0.1-0.4s0-0.3-0.1-0.4h-3.1c0,0.1-0.1,0.2-0.1,0.4
			C112.3,111.5,112.4,111.6,112.4,111.7"/>
		<path class="st7" d="M112.2,113.1h3.1c0-0.1,0.1-0.2,0.1-0.4c0-0.2,0-0.3-0.1-0.4h-3.1c0,0.1-0.1,0.2-0.1,0.4
			C112.2,112.9,112.2,113,112.2,113.1"/>
		<path class="st7" d="M65.5,110.1h3.1c0-0.1,0.1-0.2,0.1-0.4c0-0.2,0-0.3-0.1-0.4h-3.1c0,0.1-0.1,0.2-0.1,0.4
			S65.4,110.1,65.5,110.1"/>
		<path class="st7" d="M65.6,111.7h3.1c0-0.1,0.1-0.2,0.1-0.4c0-0.2,0-0.3-0.1-0.4h-3.1c0,0.1-0.1,0.2-0.1,0.4
			S65.6,111.6,65.6,111.7"/>
		<path class="st7" d="M65.8,113.1h3.1c0-0.1,0.1-0.2,0.1-0.4c0-0.2,0-0.3-0.1-0.4h-3.1c0,0.1-0.1,0.2-0.1,0.4S65.7,113,65.8,113.1"
			/>
	</g>
</g>
<g>
	<path d="M56.1,28.3c0.3-0.2,0.8-0.6,1.4-0.8c0.8-0.4,1.3-0.5,1.9-0.4c0.4,0.1,0.8,0.3,1,0.8c0.3,0.6,0.2,1.3-0.4,1.8l0,0
		c0.6-0.1,1.6,0,2,0.9c0.3,0.5,0.2,1,0.1,1.5c-0.2,0.6-0.8,1.1-1.8,1.6c-0.5,0.3-1,0.4-1.2,0.5L56.1,28.3z M58.1,30.4l0.7-0.4
		c0.8-0.4,1.1-1.1,0.8-1.7c-0.4-0.7-1-0.7-1.8-0.3c-0.4,0.2-0.5,0.3-0.7,0.4L58.1,30.4z M59.5,33.3c0.2,0,0.4-0.2,0.7-0.3
		c0.8-0.4,1.4-1.1,1-1.9c-0.4-0.8-1.3-0.8-2.1-0.4L58.4,31L59.5,33.3z"/>
</g>
<g>
	<path d="M66,28.7l0,2.2l-0.8,0.3l-0.1-7.1l1-0.3l4.4,5.6l-0.9,0.3l-1.4-1.8L66,28.7z M67.9,27.3l-1.3-1.6c-0.3-0.4-0.5-0.7-0.7-1
		l0,0c0,0.4,0.1,0.8,0.1,1.3l0,2.1L67.9,27.3z"/>
</g>
<g>
	<path d="M72.7,21.7l0.8,3.9c0.3,1.5,1.1,2,2,1.8c1-0.2,1.5-1,1.1-2.4L75.8,21l0.9-0.2l0.8,3.8c0.4,2-0.4,3.1-1.9,3.4
		c-1.3,0.3-2.5-0.3-3-2.3l-0.8-3.9L72.7,21.7z"/>
</g>
<g>
	<path d="M82,20.7l-2,0.2l-0.1-0.7l5-0.6l0.1,0.7l-2,0.2l0.7,6l-0.9,0.1L82,20.7z"/>
</g>
<g>
	<path d="M88.3,19.5c0.4-0.1,1.1-0.1,1.7-0.1c0.9,0,1.5,0.2,1.9,0.6c0.3,0.3,0.5,0.8,0.5,1.3c0,0.9-0.6,1.5-1.3,1.7l0,0
		c0.5,0.2,0.8,0.7,1,1.4c0.2,0.9,0.4,1.6,0.5,1.9l-0.9,0c-0.1-0.2-0.3-0.8-0.4-1.6c-0.2-0.9-0.5-1.3-1.3-1.3l-0.8,0l0,2.9l-0.9,0
		L88.3,19.5z M89.1,22.5l0.9,0c0.9,0,1.5-0.5,1.5-1.3c0-0.9-0.6-1.3-1.5-1.3c-0.4,0-0.7,0-0.9,0.1L89.1,22.5z"/>
</g>
<g>
	<path d="M97.1,24.3l-1,2l-0.9-0.1l3.2-6.4l1,0.1l1.3,7l-0.9-0.1l-0.4-2.2L97.1,24.3z M99.4,23.9l-0.4-2c-0.1-0.5-0.1-0.9-0.2-1.3
		l0,0c-0.2,0.4-0.3,0.8-0.5,1.2l-0.9,1.8L99.4,23.9z M97.7,18.7c0-0.3,0.3-0.5,0.6-0.4c0.3,0,0.4,0.3,0.4,0.6c0,0.3-0.3,0.5-0.5,0.4
		S97.7,19,97.7,18.7z M99.6,19c0-0.3,0.3-0.5,0.6-0.4s0.4,0.3,0.4,0.6c0,0.3-0.3,0.5-0.6,0.4C99.7,19.5,99.5,19.2,99.6,19z"/>
</g>
<g>
	<path d="M108.7,28.4c-0.4,0-1.2,0.1-2.1-0.2c-1-0.3-1.7-0.7-2.2-1.5c-0.4-0.7-0.5-1.7-0.3-2.7c0.5-1.9,2.3-3,4.4-2.4
		c0.8,0.2,1.3,0.5,1.5,0.7l-0.4,0.6c-0.3-0.2-0.7-0.5-1.4-0.7c-1.6-0.4-2.9,0.3-3.3,1.9c-0.4,1.6,0.3,2.9,1.8,3.3
		c0.5,0.1,0.9,0.2,1.2,0.1l0.5-1.9l-1.3-0.4l0.2-0.7l2.1,0.6L108.7,28.4z"/>
</g>
<g>
	<path d="M116.6,28.1l-2.4-1l-0.9,2.2l2.7,1.1l-0.3,0.7l-3.5-1.4l2.5-6.2l3.4,1.4l-0.3,0.7l-2.6-1l-0.8,2l2.4,1L116.6,28.1z"/>
</g>
<g>
	<path d="M121.7,26.6c0.4,0.1,1,0.4,1.5,0.7c0.8,0.4,1.3,0.9,1.5,1.4c0.2,0.4,0.1,0.9-0.1,1.4c-0.4,0.8-1.2,1-1.9,0.9l0,0
		c0.4,0.4,0.4,1,0.2,1.7c-0.2,0.9-0.4,1.6-0.4,1.9l-0.8-0.4c0-0.2,0.1-0.8,0.4-1.6c0.3-0.9,0.1-1.4-0.6-1.8l-0.7-0.4l-1.4,2.6
		l-0.8-0.4L121.7,26.6z M121,29.7l0.8,0.4c0.8,0.4,1.6,0.3,1.9-0.4c0.4-0.8,0-1.4-0.8-1.8c-0.4-0.2-0.7-0.3-0.8-0.3L121,29.7z"/>
</g>
<g>
	<path d="M32.6,131.6c0.1,0.5,0.3,1.1,0.7,1.7c0.6,0.8,1.4,0.9,1.9,0.5c0.6-0.4,0.6-1,0.3-2c-0.4-1.2-0.4-2.2,0.5-2.8
		c0.9-0.7,2.2-0.5,3.1,0.7c0.5,0.6,0.7,1.1,0.7,1.5l-0.8,0.3c0-0.3-0.2-0.8-0.6-1.3c-0.6-0.8-1.3-0.7-1.7-0.4c-0.6,0.4-0.5,1-0.2,2
		c0.4,1.3,0.3,2.2-0.6,2.8c-0.9,0.7-2.2,0.6-3.3-0.8c-0.4-0.6-0.7-1.3-0.8-1.8L32.6,131.6z"/>
</g>
<g>
	<path d="M42.8,135.4l-1.6-1.6l0.6-0.6l3.8,3.9l-0.6,0.6l-1.6-1.6l-4.7,4.6l-0.7-0.7L42.8,135.4z"/>
</g>
<g>
	<path d="M44.6,143.3l-2.1,1.3l-0.8-0.6l6.6-4.2l0.9,0.7l-2.7,7.4l-0.8-0.6l0.8-2.3L44.6,143.3z M46.9,144.2l0.8-2.1
		c0.2-0.5,0.4-0.9,0.5-1.3l0,0c-0.4,0.3-0.7,0.5-1.1,0.8l-1.9,1.2L46.9,144.2z"/>
</g>
<g>
	<path d="M52.3,149l-1.9,1.6l-0.8-0.5l6.1-5l1,0.6l-1.8,7.6l-0.9-0.5l0.6-2.4L52.3,149z M54.8,149.7l0.5-2.2
		c0.1-0.5,0.3-0.9,0.4-1.4l0,0c-0.3,0.3-0.7,0.6-1,0.9l-1.8,1.4L54.8,149.7z"/>
</g>
<g>
	<path d="M61.6,149.5l-2-1l0.3-0.7l5,2.3l-0.3,0.7l-2.1-1l-2.8,6l-0.9-0.4L61.6,149.5z"/>
</g>
<g>
	<path d="M67.2,151.2l0.9,0.3l-2,6.3l3,1l-0.2,0.8l-3.9-1.3L67.2,151.2z"/>
</g>
<g>
	<path d="M74.9,153.5l-1.8,7.2l-0.9-0.2l1.8-7.2L74.9,153.5z"/>
</g>
<g>
	<path d="M82.7,162.3c-0.4,0.1-1.1,0.2-2,0.1c-2.1-0.3-3.4-1.8-3.1-4.2c0.3-2.3,2.1-3.6,4.4-3.3c0.9,0.1,1.5,0.4,1.7,0.6l-0.3,0.7
		c-0.3-0.2-0.8-0.4-1.4-0.5c-1.7-0.2-3,0.7-3.3,2.6c-0.3,1.8,0.6,3.1,2.4,3.3c0.6,0.1,1.2,0,1.6-0.1L82.7,162.3z"/>
</g>
<g>
	<path d="M88,155.6l0,3.1l3.6,0l0-3.1l1,0l0.1,7.4l-1,0l0-3.5l-3.6,0l0,3.5l-1,0l-0.1-7.4L88,155.6z"/>
</g>
<g>
</g>
<g>
	<path d="M108.1,160.5c-0.4,0.2-1.2,0.7-2.1,0.9c-1.1,0.2-2.1,0.2-2.9-0.4c-0.8-0.5-1.4-1.3-1.6-2.5c-0.5-2.2,0.7-4.1,3.1-4.6
		c0.8-0.2,1.5-0.1,1.9-0.1l-0.1,0.8c-0.4-0.1-0.9-0.1-1.7,0c-1.8,0.4-2.7,1.7-2.3,3.5c0.4,1.8,1.7,2.7,3.4,2.3
		c0.6-0.1,1-0.3,1.2-0.5l-0.5-2.2l-1.5,0.3l-0.2-0.8l2.4-0.5L108.1,160.5z"/>
</g>
<g>
	<path d="M115.2,155l-2.7,1l1,2.5l3-1.1l0.3,0.8l-3.9,1.5l-2.6-6.9l3.7-1.4l0.3,0.8l-2.8,1.1l0.8,2.2l2.7-1L115.2,155z"/>
</g>
<g>
	<path d="M117.3,150.1c0.4-0.3,0.9-0.6,1.6-0.9c0.8-0.4,1.6-0.5,2.1-0.4c0.5,0.1,1,0.5,1.3,1.1c0.3,0.6,0.4,1.2,0.2,1.7
		c-0.2,0.7-0.8,1.3-1.7,1.7c-0.3,0.1-0.5,0.2-0.7,0.3l1.3,2.7l-0.9,0.4L117.3,150.1z M119.7,152.8c0.2,0,0.5-0.1,0.7-0.3
		c1-0.5,1.4-1.3,1-2.2c-0.4-0.9-1.3-1-2.2-0.5c-0.4,0.2-0.6,0.4-0.8,0.5L119.7,152.8z"/>
</g>
<g>
	<path d="M123.7,146.8c0.4-0.3,0.9-0.8,1.5-1.1c0.9-0.6,1.5-0.8,2.1-0.7c0.5,0.1,0.9,0.4,1.3,0.9c0.5,0.8,0.4,1.7-0.1,2.3l0,0
		c0.6-0.1,1.2,0.1,1.7,0.7c0.8,0.7,1.3,1.2,1.6,1.4l-0.8,0.5c-0.2-0.1-0.7-0.5-1.4-1.2c-0.7-0.7-1.3-0.8-2-0.4l-0.8,0.5l1.8,2.7
		l-0.8,0.5L123.7,146.8z M126.3,149.1l0.8-0.5c0.9-0.6,1.1-1.4,0.6-2.1c-0.5-0.8-1.3-0.8-2.2-0.2c-0.4,0.3-0.6,0.5-0.7,0.6
		L126.3,149.1z"/>
</g>
<g>
	<path d="M130.7,142l2.8,3.4c1.1,1.3,2.1,1.3,2.8,0.7c0.8-0.7,0.9-1.7-0.1-3l-2.8-3.4l0.7-0.6l2.8,3.3c1.5,1.7,1.2,3.2-0.1,4.3
		c-1.2,1-2.6,1.1-4.1-0.7l-2.8-3.3L130.7,142z M130.2,141c-0.2-0.2-0.2-0.6,0.1-0.8c0.2-0.2,0.6-0.2,0.8,0.1c0.2,0.2,0.2,0.6,0,0.8
		C130.7,141.3,130.4,141.2,130.2,141z M131.7,139.7c-0.2-0.2-0.2-0.6,0.1-0.8c0.2-0.2,0.6-0.2,0.8,0.1c0.2,0.2,0.2,0.6,0,0.8
		C132.3,140,131.9,139.9,131.7,139.7z"/>
</g>
<g>
	<path d="M136.6,136.8l2.7-3l0.6,0.5l-2,2.3l1.8,1.6l1.9-2.1l0.6,0.5l-1.9,2.1l2.5,2.2l-0.6,0.7L136.6,136.8z"/>
</g>
<g>
	<path d="M143.1,130.4l-1.3,1.8l-0.7-0.5l3.2-4.4l0.7,0.5l-1.3,1.8l5.3,3.9l-0.6,0.8L143.1,130.4z"/>
</g>
</svg>
