<svg xmlns="http://www.w3.org/2000/svg" viewBox="0 0 189.24 49.7"><defs><style>.cls-1{fill:#fff;}</style></defs><g id="Ebene_2" data-name="Ebene 2"><g id="Layer_1" data-name="Layer 1"><path class="cls-1" d="M30.14,36.65A6.44,6.44,0,0,1,30,39.51,6.32,6.32,0,0,1,28.49,42a9.11,9.11,0,0,1-5.25,2.57,9.72,9.72,0,0,1-5.91-.92,12,12,0,0,1-4.51-4,15,15,0,0,1-2.35-5.53,13.26,13.26,0,0,1,.21-6.1,11.33,11.33,0,0,1,3.19-5.32,12.86,12.86,0,0,1,5.4-2.95A19.69,19.69,0,0,1,31,20.61a44,44,0,0,1,10,5.49c3.1,2.16,6,4.49,9.08,6.6a61.1,61.1,0,0,0,9.63,5.56,25.85,25.85,0,0,0,10.75,2.4,15.77,15.77,0,0,0,10.13-3.8,13.71,13.71,0,0,0,3.3-4.31,12.23,12.23,0,0,0,1.24-5.16,11.82,11.82,0,0,0-4.27-9.1,14.41,14.41,0,0,0-9.39-3.51c-3.34.08-6.87,1.51-8.74,4.2a7.07,7.07,0,0,0-1,2.19,5.46,5.46,0,0,0-.21,2.37,6.13,6.13,0,0,0,2.39,4.12,5.94,5.94,0,0,0,4.82.94A4.17,4.17,0,0,0,71,27.33a2.86,2.86,0,0,0,.66-2.46.09.09,0,0,1,.06-.1.08.08,0,0,1,.1.05,3.18,3.18,0,0,1-.34,2.86,4.8,4.8,0,0,1-2.38,1.83,6.89,6.89,0,0,1-5.94-.58,7.58,7.58,0,0,1-3.49-5.07,7.67,7.67,0,0,1,.06-3.2,8.7,8.7,0,0,1,1.21-2.92,11.47,11.47,0,0,1,4.64-4.08,15.05,15.05,0,0,1,5.92-1.46,15.56,15.56,0,0,1,11.07,4.35,13.56,13.56,0,0,1,4.13,10.92A13.68,13.68,0,0,1,84.8,33a15.34,15.34,0,0,1-3.75,4.34,17.3,17.3,0,0,1-10.53,3.81A28.6,28.6,0,0,1,59.46,39a57.78,57.78,0,0,1-10-5.22c-3.19-2-6.21-4.25-9.33-6.25a39.6,39.6,0,0,0-9.8-4.85,18,18,0,0,0-10.37-.42,10.45,10.45,0,0,0-4.36,2.35A9.57,9.57,0,0,0,13,28.75a12.24,12.24,0,0,0,1.5,9.82,11,11,0,0,0,3.62,3.61,8.09,8.09,0,0,0,4.95,1.11,8.62,8.62,0,0,0,4.85-1.85,5.76,5.76,0,0,0,2-4.77h0a.09.09,0,0,1,.08-.08A.08.08,0,0,1,30.14,36.65Z"/><path class="cls-1" d="M0,41.62a7.6,7.6,0,0,0,2.84,5.7,7.76,7.76,0,0,0,6.05,1.5,6.08,6.08,0,0,0,4.77-3.44A5.22,5.22,0,0,0,13,39.89l1.46-1.08A6.86,6.86,0,0,1,14.8,46a7.09,7.09,0,0,1-2.46,2.61A7.68,7.68,0,0,1,9,49.66a8.46,8.46,0,0,1-6.42-2A7.81,7.81,0,0,1,0,41.62Z"/><path class="cls-1" d="M84.12,5.61A4.65,4.65,0,0,1,86.34,1,6.6,6.6,0,0,1,91.65.24,7,7,0,0,1,96,3.55,7.5,7.5,0,0,1,96.79,9a9.42,9.42,0,0,1-2.86,4.76,13.72,13.72,0,0,1-4.84,2.71,13.6,13.6,0,0,1-10.83-.87.55.55,0,0,1-.21-.75.55.55,0,0,1,.74-.21h0a13.16,13.16,0,0,0,9.94.72A12.64,12.64,0,0,0,93.23,13,8.42,8.42,0,0,0,96,8.79a6.73,6.73,0,0,0-.59-4.91,6.53,6.53,0,0,0-8.87-2.65A4.53,4.53,0,0,0,84.12,5.61Z"/><path class="cls-1" d="M159.27,36.67a5.8,5.8,0,0,0,2,4.77,8.57,8.57,0,0,0,4.85,1.85,8.06,8.06,0,0,0,4.94-1.11,11,11,0,0,0,3.62-3.61,12.2,12.2,0,0,0,1.5-9.82,9.57,9.57,0,0,0-2.56-4.17,10.33,10.33,0,0,0-4.36-2.35,18,18,0,0,0-10.37.42,39.6,39.6,0,0,0-9.8,4.85c-3.12,2-6.14,4.23-9.32,6.25a57.87,57.87,0,0,1-10,5.22,28.6,28.6,0,0,1-11.06,2.19,17.32,17.32,0,0,1-10.53-3.81A15.5,15.5,0,0,1,104.44,33a13.19,13.19,0,0,1,2.28-16.46,15.56,15.56,0,0,1,11.07-4.35,15,15,0,0,1,5.92,1.46,11.49,11.49,0,0,1,4.65,4.08,8.88,8.88,0,0,1,1.2,2.92,7.69,7.69,0,0,1-3.43,8.27,6.89,6.89,0,0,1-5.94.58,4.84,4.84,0,0,1-2.38-1.83,3.18,3.18,0,0,1-.34-2.86.1.1,0,0,1,.11-.05.09.09,0,0,1,0,.1,2.87,2.87,0,0,0,.67,2.46,4.14,4.14,0,0,0,2.18,1.27,5.93,5.93,0,0,0,4.82-.94,6.13,6.13,0,0,0,2.39-4.12,5.46,5.46,0,0,0-.2-2.37,7.09,7.09,0,0,0-1-2.19c-1.87-2.69-5.39-4.12-8.74-4.2a14.4,14.4,0,0,0-9.38,3.51,11.8,11.8,0,0,0-4.28,9.1,12.38,12.38,0,0,0,1.24,5.16,13.71,13.71,0,0,0,3.3,4.31,15.77,15.77,0,0,0,10.13,3.8,25.85,25.85,0,0,0,10.75-2.4,60.66,60.66,0,0,0,9.63-5.56c3.06-2.11,6-4.44,9.09-6.6a43.83,43.83,0,0,1,10.05-5.49A19.65,19.65,0,0,1,170,19.8a12.86,12.86,0,0,1,5.4,2.95,11.25,11.25,0,0,1,3.19,5.32,13.12,13.12,0,0,1,.21,6.1,14.84,14.84,0,0,1-2.35,5.53,12,12,0,0,1-4.51,4,9.68,9.68,0,0,1-5.9.92A9.11,9.11,0,0,1,160.75,42a6.19,6.19,0,0,1-1.5-2.52,6.3,6.3,0,0,1-.15-2.86.08.08,0,0,1,.1-.07.08.08,0,0,1,.07.08Z"/><path class="cls-1" d="M189.24,41.62a7.81,7.81,0,0,1-2.57,6,8.46,8.46,0,0,1-6.42,2,7.63,7.63,0,0,1-3.34-1.1A7.12,7.12,0,0,1,174.44,46a6.88,6.88,0,0,1,.32-7.14l1.47,1.08a5.2,5.2,0,0,0-.65,5.49,6.09,6.09,0,0,0,4.77,3.44,7.75,7.75,0,0,0,6.05-1.5A7.53,7.53,0,0,0,189.24,41.62Z"/><path class="cls-1" d="M105.13,5.61a4.53,4.53,0,0,0-2.38-4.38,6.53,6.53,0,0,0-8.87,2.65,6.78,6.78,0,0,0-.59,4.91A8.42,8.42,0,0,0,96,13a12.64,12.64,0,0,0,4.49,2.39,13.16,13.16,0,0,0,9.94-.72h0a.55.55,0,0,1,.75.22.56.56,0,0,1-.21.74,13.63,13.63,0,0,1-10.84.87,13.72,13.72,0,0,1-4.84-2.71A9.49,9.49,0,0,1,92.45,9a7.55,7.55,0,0,1,.84-5.45A6.94,6.94,0,0,1,97.6.24a6.58,6.58,0,0,1,5.3.76A4.67,4.67,0,0,1,105.13,5.61Z"/></g></g></svg>