<svg xmlns="http://www.w3.org/2000/svg" viewBox="0 0 34.27 7.39"><defs><style>.cls-1{fill:#0095db;}</style></defs><g id="Ebene_2" data-name="Ebene 2"><g id="Layer_2" data-name="Layer 2"><path class="cls-1" d="M2.08,1.22a2.32,2.32,0,0,0-2,3C.62,5.78,2.29,6.08,3.72,5.89c3.75-.49,7.27-2.76,11.16-2a5.74,5.74,0,0,1,2.38,1,1.65,1.65,0,0,1,.71,1c.09.41-.12,1-.63.92s-.4-.53-.22-.81a1.25,1.25,0,0,1,1.1-.44,14,14,0,0,1,3,.46C24.7,6.7,28.57,7.8,32,6c1.54-.8,2.8-2.46,2.08-4.25A2.81,2.81,0,0,0,32.2.08a2.54,2.54,0,0,0-2.4.65c-.23.21.07.56.33.42A2.17,2.17,0,0,1,33.39,3c-.06,1.7-2.15,2.68-3.55,3-3.8.9-7.48-.89-11.24-1.14a2.12,2.12,0,0,0-2,.68,1.21,1.21,0,0,0,.12,1.65,1.2,1.2,0,0,0,1.68-.32,1.73,1.73,0,0,0-.24-2,4.67,4.67,0,0,0-2-1.24,8.15,8.15,0,0,0-2.5-.43,16.68,16.68,0,0,0-5.36,1c-1,.32-2.06.66-3.11.94a7,7,0,0,1-3,.32A2.07,2.07,0,0,1,.41,3.5a2.06,2.06,0,0,1,1.7-2.09c.1,0,.08-.2,0-.19Z"/></g></g></svg>