<svg xmlns="http://www.w3.org/2000/svg" viewBox="0 0 1745.19 995.19"><defs><style>.cls-1{fill:#fcfcfc;}.cls-2{fill:#b5b5b5;}.cls-3{fill:#4a4a4a;}.cls-4{fill:#010101;}.cls-5{fill:#ababab;}.cls-6{fill:#fefefe;}.cls-7{fill:#fafafa;}.cls-8{fill:#fbfbfb;}.cls-9{fill:#f9f9f9;}</style></defs><title>Asset 1</title><g id="Layer_2" data-name="Layer 2"><g id="Layer_1-2" data-name="Layer 1"><path class="cls-1" d="M873,996q-433.75,0-867.5.09c-3.75,0-4.59-.84-4.59-4.59q.15-493,0-986C.91,1.75,1.75.91,5.5.91q868,.13,1736,0c3.75,0,4.59.84,4.59,4.59q-.15,493,0,986c0,3.75-.84,4.59-4.59,4.59Q1307.25,995.94,873,996Z" transform="translate(-0.91 -0.91)"/><path class="cls-2" d="M961.92,380c10.74.25,21.49.4,32.14,2,1.85-2.49,4.61-2.5,7.23-2.36,18.51,1,37,1.82,55.45,4.11A6.31,6.31,0,0,1,1061,386c32.09,3.48,64.22,6.62,96.19,11.09q62.83,8.79,125.06,21.25a1799.85,1799.85,0,0,1,201.41,52.93c33.11,10.77,65.76,22.86,98.07,35.83a2.28,2.28,0,0,1,1.45,1.65c-7.09-1.9-14.19-3.76-21.26-5.73-33.86-9.4-68-17.79-102.26-25.55q-53.85-12.18-108.2-21.84c-38.84-6.93-77.85-12.76-117-17.91-25.91-3.41-51.87-6.28-77.82-9.17-17.2-1.91-34.46-3.18-51.71-4.56q-31.34-2.52-62.69-4.71c-9-.63-18-.66-26.94-1.19-65.73-3.88-131.54-3.55-197.34-3-22.8.2-45.62.93-68.4,2-29.75,1.39-59.51,2.89-89.2,5.19-37.31,2.89-74.59,6.33-111.76,10.8-41.31,5-82.52,10.64-123.57,17.51-34.82,5.84-69.52,12.27-104.08,19.5q-80,16.74-158.55,39.23a1.65,1.65,0,0,1-2.21-.53c8.8-3.48,17.39-7,26-10.3a1689.52,1689.52,0,0,1,192.89-60.93c43.14-10.86,86.58-20.3,130.37-28,40.81-7.22,81.78-13.51,123-17.71,11.09-1.13,22.14-2.76,33.24-3.66,4.37-.35,5.2-2.26,5.14-6-.15-8.82-.51-17.65-.67-26.47-.38-22.32-.13-44.66-.33-67,0-4,1.14-6.37,4.76-8.32,27-14.57,53.84-29.33,80.76-44a24,24,0,0,1,2.78-1.1c2.46,3.32,2.23,7.19,2.23,11q0,58.44,0,116.87c0,1.33,0,2.67,0,4,.06,9.85,1.28,10.58,10.92,10.57,20.14,0,40.24-1.87,60.38-1.17,2.49.09,5-.05,7.23,1.45,8.63,0,17.26-.13,25.88.06,4,.09,5.17-1.54,5.12-5.32-.11-9.28.08-18.57.16-27.86,3.33.4,3,3.1,3.16,5.3.32,5.31.06,10.63.17,15.94.14,7.36,1.92,9.45,9.08,9.33,18.76-.32,37.46,1.72,56.22,1.1,6.15-.2,12.22,1.21,18.37,1.16A5.63,5.63,0,0,1,961.92,380Z" transform="translate(-0.91 -0.91)"/><path class="cls-3" d="M1061,386c-14.54-1-29.06-2.22-43.61-3-7.77-.4-15.51-1.67-23.33-1q0-86.7.05-173.41c0-4.26-1.39-6.48-5-8.57-24.09-13.88-48-28-72-42-2-2.46-2.51-5.32-2.51-8.39q-.07-59.56,0-119.11c0-3,.24-6,2.7-8.23q70.1,40.86,140.25,81.63c3.28,1.9,3.51,4.25,3.51,7.38Q1061,248.63,1061,386Z" transform="translate(-0.91 -0.91)"/><path d="M812,618.56c0,8-.06,17,0,26,.31,37.18-2.47,74.25-3.85,111.38-.08,2.33-.79,3.16-3.18,3.14-12-.1-24-.15-36,0-3.6,0-3.1-2-2.94-4.2q1.65-21.66,3.31-43.34,3.31-43.85,6.6-87.69c1.09-14.61,2.23-29.23,3.18-43.85.23-3.38,1.52-4.46,4.92-4.42q23,.24,46,0c3.28,0,4.52,1,5.24,4.31,8.57,39.31,17.34,78.59,27,118,1.54-7.33,3.11-14.66,4.63-22,6.65-32.09,13.34-64.17,19.83-96.28.64-3.16,1.85-4.06,4.9-4,15.66.12,31.33.15,47,0,3.39,0,4.19,1.31,4.41,4.35q5.54,76.25,11.21,152.48c.56,7.48,1.09,15,1.85,22.41.32,3.23-.57,4.33-4,4.27-11.33-.2-22.66-.22-34,0-3.62.08-4.31-1.2-4.43-4.52-1.66-45.61-5.46-91.16-3.83-136.86,0-.32-.11-.64-.78-1.1-2.32,10.3-4.67,20.59-7,30.9-6.5,29.22-13,58.44-19.38,87.7-.74,3.42-2.07,4.5-5.57,4.43-10.66-.25-21.33-.23-32,0-3.55.07-4.76-1.13-5.57-4.57C830.86,697.49,821.89,660,813,622.43,812.59,620.83,812.16,619.25,812,618.56Z" transform="translate(-0.91 -0.91)"/><path d="M699.12,621.07c-8.36,37.5-16.79,75-25,112.51-1,4.35-2.21,6.38-7.26,6.13-10.14-.51-20.32-.27-30.48-.09-3.37.07-4.88-.75-5.72-4.37-8.78-37.74-17.79-75.43-26.74-113.12a11.9,11.9,0,0,0-1.86-4.55c0,1.74-.1,3.49,0,5.23,2.73,44.37-1.4,88.57-2.9,132.84-.09,2.54-.79,3.45-3.44,3.42-11.83-.13-23.66-.16-35.49,0-3.24,0-3.43-1.45-3.24-3.94q2.22-28.39,4.35-56.79,3.3-43.59,6.57-87.18c.77-10.3,1.61-20.59,2.18-30.9.2-3.61,1.51-4.75,5.17-4.7q22.74.3,45.49,0c3.48,0,4.79,1,5.56,4.53,8.43,38.67,17.08,77.3,25.67,115.94a2.6,2.6,0,0,0,1.32,1.83q2.33-11.07,4.63-22.16c6.64-32.09,13.32-64.17,19.84-96.28.59-2.88,1.67-3.85,4.55-3.84q23.74.17,47.48,0c3,0,4,1.1,4.21,4q4,55.82,8.17,111.61c1.51,20.26,3.14,40.51,4.72,60.77.55,7,.55,7-6.44,7-10.5,0-21-.13-31.49.07-3.27.06-4.14-1-4.27-4.17-1.19-29-2.56-57.91-3.87-86.87-.76-14.23-.09-28.47-.41-42.7C700.4,624,701.9,621.75,699.12,621.07Z" transform="translate(-0.91 -0.91)"/><path d="M1136.16,664.13c0,21.47-2.54,39.84-11.06,56.92-13.34,26.74-35.45,40.18-64.91,42.05-12.55.8-25-.12-37-4.41-24.71-8.84-39.68-26.93-46.91-51.43-7.76-26.31-8-53.07-.09-79.34,12.6-41.92,45.11-59.38,84.89-56.62,45.13,3.14,66.77,33.58,72.89,69.09C1135.52,649.1,1136.37,657.88,1136.16,664.13Z" transform="translate(-0.91 -0.91)"/><path class="cls-3" d="M961.92,380C934,379,906,378.1,878,378c-7,0-6.89,0-7.09-7.19-.25-8.65.54-17.32-.73-25.94V165c1.21-.14,2.44,1.17,3.82,2q41.94,24.28,83.87,48.62c2.62,1.51,4.24,3,4.23,6.45Q961.85,301,961.92,380Z" transform="translate(-0.91 -0.91)"/><path class="cls-2" d="M917.27,22.23c-.09,3-.26,6-.26,9q0,63.38,0,126.76L861,125.3c-5-2.93-10.18-5.7-15-8.9-3-2-5.2-1.53-8.12.25-21.17,12.91-42.46,25.64-63.72,38.4-4.87,2.93-5.08,2.81-5.09-2.73,0-13.48.05-27,0-40.45,0-3.29.83-5.58,3.9-7.34q70.64-40.43,141.18-81A25.19,25.19,0,0,1,917.27,22.23Z" transform="translate(-0.91 -0.91)"/><path d="M1278,742.23q4.42-18.39,8.83-36.78,14.69-61.65,29.26-123.32c.79-3.35,2.06-4.48,5.6-4.45,13.3.12,13.23,0,16.38,13q18,74.19,36.05,148.37c.27,1.11.72,2.17,1.53,4.56,2.6-12.43,4.93-23.6,7.26-34.76,8.77-42.18,17.6-84.35,26.23-126.56.77-3.77,2.36-4.63,5.91-4.57,10,.17,10.09,0,8,9.64q-18.36,83.85-36.68,167.7c-.67,3.09-1.68,4.26-4.81,4-5.12-.38-11.35,1.87-15.11-.86-3.59-2.61-3.08-9.14-4.26-14q-17.28-70.77-34.35-141.59c-.37-1.53-.95-3-1.53-4.76-1.8,1.5-1.82,3.23-2.18,4.74q-18.48,75.89-36.8,151.79c-.88,3.68-2.25,5-5.93,4.66-4.63-.37-10.46,1.4-13.64-.81-3.48-2.43-2.81-8.79-3.84-13.46q-17.75-80.14-35.38-160.32c-1.48-6.72-1.53-6.7,5-6.71,9.6,0,9.52,0,11.45,9.38q15.63,76,31.35,152c.2,1,.53,1.91.81,2.87Z" transform="translate(-0.91 -0.91)"/><path d="M1582.53,718.67c3.68-11.87,7-22.58,10.33-33.32q15.87-51.49,31.61-103c1.06-3.49,2.49-4.9,6.17-4.62a90.84,90.84,0,0,0,13,0c3.37-.23,4.6.83,4.91,4.26,1.72,19.24,3.67,38.46,5.53,57.69q3.81,39.29,7.6,78.56c1.18,12.27,2.24,24.55,3.51,36.8.31,3-.31,4.05-3.59,4.08-10.81.13-11.08.3-12.15-10.41-2.65-26.35-5-52.72-7.52-79.08-2.28-24-4.76-48.06-6.28-72.17a6.27,6.27,0,0,0-.51-1.49c-1.79,1.09-1.75,2.95-2.24,4.51q-20.87,65.87-41.61,131.78c-1.15,3.68-2.42,5.4-6.71,5.24-9.94-.36-10-.07-13.08-9.57q-20.29-62.13-40.63-124.23c-.63-1.93-.53-4.35-2.66-5.56-1.73.53-1.15,1.93-1.22,3-3.66,50.67-8.79,101.21-12.93,151.84-.43,5.22-2.4,6.45-7.29,6.22-8.46-.41-8.5-.11-7.69-8.55q7.32-76.33,14.65-152.67c.53-5.47,1-10.95,1.37-16.43.17-2.62,1.13-4.11,4-3.7a2.78,2.78,0,0,0,.5,0c5.82.12,12.71-1.65,17.14.89,4.27,2.45,4.18,10,5.89,15.33q18.84,58.66,37.46,117.4C1580.71,713.44,1581.43,715.46,1582.53,718.67Z" transform="translate(-0.91 -0.91)"/><path d="M488.25,667c0-28.5.12-57-.13-85.49,0-5,1.46-6.12,6.18-6,10.82.35,21.66.25,32.49,0,3.66-.07,4.86.91,4.85,4.73q-.18,87.23,0,174.47c0,3.05-.59,4.41-4.11,4.33q-17.49-.35-35,0c-3.71.08-4.34-1.3-4.33-4.61C488.3,725.32,488.25,696.16,488.25,667Z" transform="translate(-0.91 -0.91)"/><path class="cls-3" d="M839,378c-2.38,1-4.91.83-7.39.83q-33.21.07-66.34,2.13c-7.14.45-7.28.28-7.28-6.86q0-66.42,0-132.85c0-2,.15-4,.23-6C784.11,249.6,810,264,835.9,278.19c3,1.62,3.13,3.77,3.12,6.54Q839,331.37,839,378Z" transform="translate(-0.91 -0.91)"/><path d="M302.27,667.34c.19,17.49-1.85,33.59-8,49-11.65,29.4-34.79,45.43-65.7,45.56-30.14.14-54.36-15.49-65.37-44.47-12.61-33.17-12.71-67.11,1.06-99.92,22.09-52.63,81.91-50.49,108.62-27.92,15.83,13.38,23.38,31.16,27.13,50.94A130.62,130.62,0,0,1,302.27,667.34Z" transform="translate(-0.91 -0.91)"/><path d="M349.55,668.52c0-28.48.08-57-.08-85.44,0-4,.78-5.55,5.15-5.39,18.29.67,36.63-1,54.89,1.18a73.41,73.41,0,0,1,20.2,5.27c22.29,9.45,30.92,28.09,29,54.26-2.22,30.25-21.46,44.2-50.37,48.66-6.44,1-12.93,1-19.42,1.13-7.77.18-15.57-.9-23.3.61-1.12,7.76-.37,15.57-.45,23.36q-.21,21.23,0,42.47c.05,3.46-.87,4.5-4.41,4.48-11.24-.09-11.24.07-11.24-11.15Q349.56,708.24,349.55,668.52Z" transform="translate(-0.91 -0.91)"/><path class="cls-2" d="M1496.06,874c21.53-.22,42.28,4.53,63,9.84,24.5,6.3,48.65,14.14,73.82,17.58,19.21,2.62,38.44,4.27,57.06-3.53,10.94-4.58,19.94-11.34,25.46-22.12,4.65-9.08,3.37-18-3.43-24.2-7.78-7.14-21.1-9-28.76-4-5,3.24-6,6.69-3.13,11.79,1.79,3.2,2.77,6.25-.23,9.06-2.81,2.62-5.9,1.46-8.82-.05-10.46-5.42-12.57-14.33-4.57-22.72,10.86-11.42,29.38-17.95,46.52-8,11.92,6.93,16.67,19.39,12.35,33.67-5.87,19.38-19.76,30.7-38.48,36.63-17.48,5.54-35.41,5.45-53.41,3.53-29.46-3.14-57.68-11.93-86.27-19-14.74-3.64-29.64-6.61-44.8-7.26-25-1.06-47.8,5.28-67.51,21.26-1,.81-2.07,2.25-3.42,1.37s-.53-2.51-.12-3.69c2.28-6.41,7.28-10.69,12.29-14.8,12.32-10.1,26.87-14.32,42.5-15.39C1489.39,873.8,1492.73,874,1496.06,874Z" transform="translate(-0.91 -0.91)"/><path class="cls-2" d="M93.83,913.92C74,913,55,910.78,39.14,898.06c-10.29-8.25-16.83-18.77-18.79-31.95-2.29-15.32,9.24-29.72,26.28-31.86,14.26-1.8,26.14,3.44,35.51,14.3,3.33,3.86,4.38,8.46,2.15,13a16.52,16.52,0,0,1-12.89,9.22c-4.29.64-7.27-3.43-5.81-7.53,1.28-3.61,4.86-6.79,1.93-11.08-3.22-4.72-8.21-6.05-13.45-6.61C38.62,844,25.25,858.77,29.79,872.42a37.28,37.28,0,0,0,11.75,17.09c11,9.11,23.83,13.65,38.06,14.59,26.71,1.78,52.27-4.35,77.75-11.07,23-6.07,45.84-13.14,69.51-16.4,20.6-2.83,41.17-3.74,61,4.49a63.19,63.19,0,0,1,23.66,17.14,25.39,25.39,0,0,1,3.14,4.5c1,1.86,2.6,4.5.94,5.93-1.85,1.58-3.29-1.28-4.78-2.4A96.57,96.57,0,0,0,262.27,887c-27.15-2.94-52.91,4.11-78.71,10.77-23.55,6.08-47,12.43-71.33,14.9C105.94,913.26,99.61,913.52,93.83,913.92Z" transform="translate(-0.91 -0.91)"/><path d="M88.17,676c0,25.83-.08,51.66.09,77.49,0,4.08-.55,5.85-5.31,5.66-10.07-.41-10.08-.1-10.08-10.27q0-75.24,0-150.49c0-7.44,1-6.8-7.07-6.82-13.84,0-27.67-.13-41.5.07-3.9.06-5.6-.61-5.42-5.08.34-8.77.06-8.78,9.08-8.78,36.66,0,73.33.09,110-.11,4.76,0,5.59,1.34,4.75,5.66-1.59,8.19-1.4,8.23-10,8.23-13.17,0-26.33.13-39.5-.08-3.87-.06-5.1,1-5.08,5C88.26,623,88.17,649.5,88.17,676Z" transform="translate(-0.91 -0.91)"/><path class="cls-2" d="M814,204c0,12.65-.08,25.3,0,38,0,4.16-1.1,4.47-4.52,2.46-15.92-9.37-32-18.45-47.9-27.86-3.28-1.94-5.71-2.18-9.06-.12-9.65,5.91-19.59,11.32-29.31,17.12-3.25,1.93-4.19,1.44-4.3-2.38-.36-12.93-.43-12.88,10.57-19.48q39.4-23.59,78.78-47.23c1.51-.9,3.12-2.86,4.82-2s.83,3.34.84,5.07C814,179.74,814,191.89,814,204Z" transform="translate(-0.91 -0.91)"/><path class="cls-2" d="M1141.12,844.48c-1.06,12.29-2,24.16-3.12,36-1.2,13.26-2.51,26.5-3.69,39.76-.27,3.08-1.18,5-4.82,4.75-4-.31-2.73-3.1-2.55-5.17,1.84-20.21,3.78-40.41,5.67-60.62.65-7,1.18-13.92,1.89-20.87.27-2.64.46-5.51,4.4-5.33,3.57.16,7.2-.82,8.76,4.26,5.6,18.31,11.54,36.52,17.36,54.77,1,3.31,2.13,6.6,3.37,10.46,2.61-2,2.73-4.63,3.41-6.83q8.87-28.63,17.58-57.32c.92-3,1.9-5.43,5.93-5.42,6.81,0,7.11.22,7.76,7.07,2.47,26,5.06,52,7.61,78,.08.82.19,1.65.23,2.48.14,2.35-.12,4.35-3.23,4.49-2.76.12-4.37-.68-4.65-3.76q-3-32.82-6.07-65.6a49.32,49.32,0,0,0-2-10.85c-1.4,4.21-2.83,8.4-4.19,12.61-5.58,17.45-11.18,34.89-16.68,52.37-.84,2.68-2,4.29-5.12,4.36-3.36.06-4.66-1.66-5.59-4.5q-9.75-29.94-19.68-59.8C1143.17,848.12,1143.07,846.2,1141.12,844.48Z" transform="translate(-0.91 -0.91)"/><path class="cls-2" d="M889.9,913.21c-.27-3.43-.76-6.85-.78-10.28q-.15-32.25-.11-64.49c0-2-.67-4.62,2.42-5.25,3.83-.77,5.52.74,5.47,4.77-.12,12,0,24,0,36,0,15,0,30,0,45,0,2.3.94,5.62-2.81,5.87-3.45.23-7.37,1.49-9.67-3-4.9-9.46-10-18.81-15-28.24-7.4-14-14.74-28-22.14-42-.92-1.75-2-3.4-3.76-6.32,0,7.32-.22,13.32,0,19.29.84,18.82.18,37.65.37,56.47,0,2.65-1.14,3.92-3.92,3.94-3.19,0-3.95-1.7-3.94-4.43q0-22,0-44c0-12.33-.06-24.67.06-37,0-2.38-1.29-5.91,2.78-6.38,3.71-.44,7.37-1,9.71,3.73,6.93,13.86,14.31,27.48,21.51,41.2l18.53,35.36Z" transform="translate(-0.91 -0.91)"/><path class="cls-2" d="M1276.39,875.39c.44,1.25,1.32,1.38,2.09,1.62,14.07,4.42,17.76,16.25,14.59,30.14-2.27,9.9-10,14.26-18.93,16.4-11.47,2.72-23.22,1.16-34.85,1.37-2.67,0-3.29-1.75-3.29-4,0-3.5,0-7,0-10.49,0-23.65.13-47.3-.09-70.94-.05-5,1.4-6.86,6.51-6.57,9,.51,18-.52,26.9,1.22,16,3.11,23.84,14.59,19.53,28.69C1286.86,869.22,1282,872.75,1276.39,875.39Z" transform="translate(-0.91 -0.91)"/><path class="cls-2" d="M434,878.81c0-13.15.22-26.31-.1-39.45-.13-5.17,1.71-6.72,6.65-6.42,9.28.56,18.63-.71,27.88,1.16C484.83,837.42,492.54,850,488,866c-2.16,7.62-7.72,11.92-14.67,14.52-3.68,1.38-4.17,2.76-2.15,6.09q9.68,16,18.88,32.33c1,1.71,4,3.45,1.7,5.73-1.79,1.78-7.67-.16-9.16-2.63-2.31-3.85-4.55-7.75-6.78-11.65-4.23-7.36-8.57-14.66-12.58-22.14-1.71-3.18-3.83-4.56-7.48-4.48-16.18.35-13.49-2-13.72,13.25-.11,7,.1,14-.08,21-.07,2.8,1.51,6.83-3.83,6.93s-4.08-3.8-4.1-6.7C433.92,905.11,434,892,434,878.81Z" transform="translate(-0.91 -0.91)"/><path class="cls-2" d="M927,879c0-13.49.1-27-.07-40.47,0-4,1.21-5.81,5.43-5.58,7.63.42,15.29-.38,22.93.87,19.34,3.15,29.07,12.64,32,32.18,1.7,11.46,1.47,23-2.15,34.1-4.73,14.59-18.36,24.13-35.24,24.81-6,.24-12-.07-18,.12-3.73.11-5-1.48-4.93-5.06C927.05,906.32,927,892.67,927,879Z" transform="translate(-0.91 -0.91)"/><path class="cls-2" d="M730.06,879q0,20.24,0,40.47c0,2.7.24,5.44-3.85,5.54-4.38.11-4.2-2.73-4.19-5.67,0-11.33-.12-22.66.06-34,.07-4.11-1.42-5.61-5.53-5.54-11,.18-22,.22-33,0-4.5-.09-5.72,1.75-5.65,6,.2,11.32.05,22.65.08,34,0,2.87-.1,5.33-4.09,5.3s-3.94-2.68-3.94-5.44q0-40.47,0-80.94c0-3-.07-5.75,4.26-5.62,4.15.12,3.75,2.93,3.76,5.59,0,9.66.16,19.32,0,29-.09,4.14,1.43,5.56,5.52,5.49,11-.2,22-.24,33,0,4.49.1,5.75-1.66,5.65-5.88-.22-9.33-.1-18.66-.05-28,0-2.91-.72-6.3,4.14-6.2,4.51.09,3.86,3.25,3.87,6C730.09,852.34,730.06,865.66,730.06,879Z" transform="translate(-0.91 -0.91)"/><path class="cls-2" d="M1316,878.54q0-20,0-40c0-2.68-.32-5.45,3.8-5.57,4.37-.12,4.23,2.69,4.22,5.65,0,9.66.1,19.32,0,29,0,3.7,1,5.49,5.06,5.43q17-.27,34,0c4.06.06,5.13-1.71,5.07-5.42-.15-9.82,0-19.65-.06-29.47,0-3,.33-5.27,4.23-5.17,3.66.1,3.83,2.38,3.83,5.06q0,41,0,81.94c0,2.73-.26,4.93-3.9,5-3.94.08-4.16-2.3-4.15-5.22,0-11.33-.17-22.66.09-34,.1-4.64-1.6-6.1-6.1-6q-16,.35-32,0c-4.48-.1-6.23,1.33-6.11,6,.26,10.82.14,21.65,0,32.48,0,2.9,1.21,6.82-4.09,6.69s-3.81-4.14-3.84-7C1315.9,904.86,1316,891.7,1316,878.54Z" transform="translate(-0.91 -0.91)"/><path class="cls-2" d="M1108.08,897.33c0,5.66-.12,11.33,0,17,.09,3.25-1,5.35-4.1,6.6-10,4.1-20.3,6.35-31.2,4.33-11.78-2.18-20.31-9-24.77-19.68-7.13-17.12-7.68-34.79,0-52,9.44-21,35.92-28.3,54.44-15.28,1.46,1,4.1,1.79,2.19,4.51-1.55,2.2-3.28,3-5.86,1.21a28.26,28.26,0,0,0-16.4-5.19c-13,0-22.83,6.31-27.35,18.53a62.47,62.47,0,0,0,.3,45c6.07,16,27.55,22.6,42.22,13.41,2-1.25,2.49-2.94,2.49-5,0-8-.1-16,0-24,.06-3.76-1.69-5-5.19-4.86-3,.12-6,0-9,0-2.64,0-3.92-1.34-4.06-4-.17-3.29,2.19-2.77,4.09-2.79,5.67,0,11.34.15,17-.07,4-.16,5.26,1.62,5.14,5.37C1107.94,886,1108.08,891.66,1108.08,897.33Z" transform="translate(-0.91 -0.91)"/><path class="cls-2" d="M782.59,899.88c-5,0-10,.09-15,0-3-.08-4.6,1.13-5.47,3.95-1.8,5.9-3.85,11.71-5.66,17.6-.73,2.38-1.94,3.57-4.58,3.64-3.38.09-4.54-.81-3.35-4.35q14.13-41.9,28-83.86c1.17-3.53,3.52-3.83,6.55-3.87s5.28.65,6.41,4.07c9.11,27.68,18.39,55.31,27.53,83,.52,1.57,2.55,4.07-.77,4.78-2.65.57-5.84,1-7-2.8-1.82-5.71-3.78-11.38-5.39-17.15-1-3.63-2.94-5.21-6.78-5C792.26,900.05,787.42,899.87,782.59,899.88Z" transform="translate(-0.91 -0.91)"/><path class="cls-2" d="M580.89,869.41q0-15.51,0-31c0-2.81,0-5.39,4-5.4s4,2.63,4,5.4q0,27.51,0,55c0,2.49,0,5,.18,7.49,1,10.73,8,17.63,18.45,18.15,14.51.72,22.07-4.14,24.53-15.73a44,44,0,0,0,.92-9.43q0-27.75,0-55.49c0-2.8-.06-5.47,4-5.38,2.67.05,4,1,4,3.81-.06,21.33.68,42.69-.39,64-.9,18-17,28.25-36.21,24.76-15.13-2.75-23.3-12.3-23.49-27.66C580.8,888.4,580.89,878.9,580.89,869.41Z" transform="translate(-0.91 -0.91)"/><path class="cls-2" d="M513,878.6c0-13.16.18-26.32-.1-39.47-.1-4.88,1.65-6.31,6.36-6.21,11.82.26,23.65.05,35.47.13,1.94,0,4.69-.85,4.51,2.85-.14,3-1.76,4-4.55,4-9.33,0-18.66.15-28-.07-4.38-.11-5.91,1.49-5.77,5.82.26,7.82.19,15.65,0,23.48-.08,3.69,1.4,5,5,4.94,7.66-.15,15.32,0,23,0,2.39,0,4.94-.11,4.82,3.41-.12,3.35-2.61,3.4-5,3.41-7.49,0-15,.14-22.48,0-3.79-.09-5.42,1.23-5.34,5.19q.27,13.49,0,27c-.08,4,1.6,5.23,5.37,5.17,9.65-.14,19.31-.06,29,0,2.48,0,5.36-.26,5.45,3.45.09,3.92-2.93,3.36-5.34,3.37-12.32,0-24.65-.1-37,.08-4.11.06-5.57-1.38-5.52-5.5C513.09,905.91,513,892.25,513,878.6Z" transform="translate(-0.91 -0.91)"/><path class="cls-2" d="M382.09,882.55c0-12.32-.13-24.64.07-37,.07-4.36-1.54-6-5.84-5.77-5.48.24-11,0-16.48,0-2.43,0-4.81-.07-4.76-3.53.05-3.15,2.18-3.3,4.46-3.3q27,0,53.94,0c1.95,0,4.31-.25,4.27,2.8s-1.87,4-4.59,4c-5.16,0-10.32,0-15.48,0-7.56,0-7.58,0-7.58,7.38q0,36-.05,71.91c0,2,.73,4.5-2.06,5.57-3.53,1.36-5.82-.39-5.85-4.74-.06-12.48,0-25,0-37.45Z" transform="translate(-0.91 -0.91)"/><path class="cls-4" d="M1452.52,761.19c-7.34.06-12.67-5.11-12.73-12.35a12.15,12.15,0,0,1,12.63-12.49A12.28,12.28,0,0,1,1465,748.52,12.15,12.15,0,0,1,1452.52,761.19Z" transform="translate(-0.91 -0.91)"/><path class="cls-4" d="M1711.44,761.19c-7.33,0-12.62-5.17-12.65-12.43s5.42-12.48,12.7-12.4a12.42,12.42,0,1,1,0,24.83Z" transform="translate(-0.91 -0.91)"/><path class="cls-5" d="M699.12,621.07c-.37-1.91.76-3.5,1.72-5.27v52.25c-1.76-10.53-.59-21.16-1.05-31.73C699.57,631.24,701,626.08,699.12,621.07Z" transform="translate(-0.91 -0.91)"/><path class="cls-6" d="M1090.78,671.21c-.57,12.64-1.1,25.3-5.5,37.37-6.59,18.07-21,26.2-39.76,22.38-11.08-2.26-18.06-9.41-22.46-19.41-4.56-10.38-5.82-21.45-6.49-32.61-1-16.19-.57-32.33,3.6-48.1,3.34-12.65,9.58-23.09,23.3-26.86,18.47-5.07,34.62,3.08,41.46,20.94,4.41,11.52,5.22,23.66,5.82,35.8C1090.92,664.21,1090.78,667.72,1090.78,671.21Z" transform="translate(-0.91 -0.91)"/><path class="cls-7" d="M797.2,296.67c0,7.77,0,7.77-6.72,3.9-4.65-2.66-7.66-11.72-5.43-16.2.48-1,1.05-1,2-.75A13.07,13.07,0,0,1,797.2,296.67Z" transform="translate(-0.91 -0.91)"/><path class="cls-7" d="M784.92,312.32c.37-1.94-1.16-5.12.79-6.25s4,1.59,6,2.68c4.83,2.68,7.45,10.68,5.4,15.66-.52,1.26-1.23,1.24-2.33,1C788.66,323.86,784.92,319.05,784.92,312.32Z" transform="translate(-0.91 -0.91)"/><path class="cls-7" d="M818.72,331c.43-2.16-1-5.07.87-6.17,2.22-1.3,4.09,1.44,6,2.52,4.77,2.64,7.56,11.33,5.43,16.11-.82,1.82-1.78.85-2.73.3-2.45-1.41-4.86-2.87-7.31-4.28C817.33,337.42,819.4,333.84,818.72,331Z" transform="translate(-0.91 -0.91)"/><path class="cls-7" d="M814.27,328.49c-.45,1.91,1.24,5.06-.83,6.18s-4-1.67-6-2.75c-4.88-2.71-7.63-11.12-5.55-16.08a1.4,1.4,0,0,1,1.88-1C809.55,315.94,814.28,321.92,814.27,328.49Z" transform="translate(-0.91 -0.91)"/><path class="cls-8" d="M779.29,310.18c-.47,1.81,1.22,4.9-1,6-1.71.87-3.7-1.63-5.53-2.66-5.11-2.86-7.86-10.76-5.75-15.92.5-1.24,1.18-1.25,2.3-.95C775.75,298.4,779.29,303,779.29,310.18Z" transform="translate(-0.91 -0.91)"/><path class="cls-9" d="M779.3,265.49c-.45,1.83,1.2,4.93-1,6.09-1.72.92-3.71-1.61-5.54-2.64-5.19-2.93-7.88-10.62-5.83-16,.48-1.25,1.15-1.32,2.28-1C775.5,253.56,779.3,258.5,779.3,265.49Z" transform="translate(-0.91 -0.91)"/><path class="cls-7" d="M814.27,283.73c-.42,1.93,1.2,5.08-.82,6.22s-4-1.59-6-2.69c-5.11-2.9-7.47-9.91-5.56-15.62.42-1.23,1-1.45,2.17-1.18C810.16,271.82,814.27,277,814.27,283.73Z" transform="translate(-0.91 -0.91)"/><path class="cls-7" d="M831.17,293.26c-.34,1.95,1.14,5.14-.76,6.28s-4-1.64-6-2.71c-5.2-2.84-7.5-9.59-5.65-15.57.37-1.2.91-1.55,2.14-1.32C826.64,281,831.16,286.72,831.17,293.26Z" transform="translate(-0.91 -0.91)"/><path class="cls-7" d="M779.3,287.39c-.57,1.93,1.39,5.23-1,6.44-1.89.93-4-1.74-6-2.85-4.67-2.63-7.32-10.92-5.24-15.69.52-1.21,1.22-1.2,2.33-.89C775.76,276.19,779.29,280.63,779.3,287.39Z" transform="translate(-0.91 -0.91)"/><path class="cls-7" d="M831.17,315.39c-.25,2,1.07,5.25-.63,6.32-2.23,1.42-4.3-1.59-6.38-2.72-4.66-2.53-7.34-11.05-5.24-15.68.55-1.22,1.28-1.14,2.37-.83C827.8,304.36,831.16,308.61,831.17,315.39Z" transform="translate(-0.91 -0.91)"/><path class="cls-8" d="M801.85,298.86c.51-1.81-1.28-4.93.94-6.05,2.05-1,4.05,1.64,6,2.74,4.87,2.75,7.35,10.32,5.39,15.66-.45,1.23-1,1.35-2.22,1C805.51,310.5,801.85,305.85,801.85,298.86Z" transform="translate(-0.91 -0.91)"/><path class="cls-9" d="M784.92,267.29c.21-1.84-1-4.79.58-5.89,1.8-1.28,3.72,1.31,5.5,2.29,5.87,3.22,8,9.06,6.15,15.62-.42,1.47-1,1.78-2.47,1.41C788.45,279.1,784.92,274.4,784.92,267.29Z" transform="translate(-0.91 -0.91)"/><path class="cls-6" d="M286,668.84c-.17,14.76-1.45,29.63-6.78,43.87-8.61,23-25.75,35.29-50,35.81-22.77.49-41.3-11.9-50.39-34-7.86-19.11-8.55-39.17-7.19-59.41.79-11.67,2.88-23.1,7.55-33.92,9.51-22.08,27.37-33.55,51.45-33.08,22.23.44,39.8,13.09,48.23,34.87C284.49,637.64,285.87,653,286,668.84Z" transform="translate(-0.91 -0.91)"/><path class="cls-6" d="M365.14,632.48c0-12.65,0-25.3,0-38,0-2.41.08-4.2,3.31-4.11,13.62.34,27.29-.75,40.86,1.56,21.12,3.62,31.39,14.82,33,36.22a59,59,0,0,1-.78,15.42c-3.23,17.1-13,26.43-31.62,30-13.82,2.69-27.87,1.55-41.83,1.77-3.06,0-2.92-1.92-2.91-4Q365.16,652,365.14,632.48Z" transform="translate(-0.91 -0.91)"/><path class="cls-6" d="M1244,898.66c0-4.66.1-9.32,0-14-.09-3.34,1.19-4.9,4.65-4.82,6.32.14,12.67-.18,19,.2,11.14.67,18,7.82,18.3,18.54s-6.3,18.21-17.49,19.19c-6.77.6-13.63.21-20.45.31-3.1,0-4-1.7-4-4.46C1244.07,908.65,1244,903.65,1244,898.66Z" transform="translate(-0.91 -0.91)"/><path class="cls-6" d="M1244,856.08c0-4,0-8,0-12,0-2.21.51-4.12,3.18-4.12,7.79,0,15.65-.93,23.3,1.36,7.08,2.12,10.67,6.66,11.2,14.17a16,16,0,0,1-9.14,15.35c-8.44,3.67-17.37,1.86-26.12,1.89-2.19,0-2.39-2-2.4-3.7C1244,864.73,1244,860.41,1244,856.08Z" transform="translate(-0.91 -0.91)"/><path class="cls-6" d="M442,858.27c0-4.66,0-9.31,0-14,0-2.42.54-4.4,3.49-4.36,7.45.12,15-.89,22.33,1,8.05,2.11,12,7.19,12.27,15.39.3,10.27-3.17,16.05-11.27,18.85-7.77,2.68-15.79,1.61-23.73,1.65-2.76,0-3.08-2-3.08-4.17C442,867.91,442,863.09,442,858.27Z" transform="translate(-0.91 -0.91)"/><path class="cls-6" d="M935,879c0-11,.2-22-.09-33-.13-4.89,1.68-6.6,6.38-6.2,3.48.3,7,0,10.48.19,13,.66,22.46,8,25.74,20.52a66.37,66.37,0,0,1-1.16,38.84c-3.91,11.49-13,18.14-25.13,18.64-3.66.15-7.33,0-11,.15-3.84.21-5.64-1.33-5.23-5.23a4.17,4.17,0,0,0,0-.5Z" transform="translate(-0.91 -0.91)"/><path class="cls-6" d="M783.31,841.85c1.47,4.32,2.83,8.17,4.1,12,3.71,11.38,7.27,22.81,11.12,34.15,1.3,3.84.37,5.09-3.64,5-8.14-.18-16.29-.1-24.44,0-3,0-4.45-.68-3.34-4.06,5-15.16,9.9-30.35,14.87-45.52C782.11,843,782.54,842.74,783.31,841.85Z" transform="translate(-0.91 -0.91)"/></g></g></svg>